<svg width="2571" height="2379" viewBox="0 0 2571 2379" fill="none" xmlns="http://www.w3.org/2000/svg">
<path d="M1625.3 1876.08C1626.07 1876.08 1626.7 1875.42 1626.7 1874.6V1856.67C1626.7 1855.86 1626.07 1855.2 1625.3 1855.2H1610.73C1609.96 1855.2 1609.33 1855.86 1609.33 1856.67V1874.6C1609.33 1875.42 1609.96 1876.08 1610.73 1876.08H1625.3Z" fill="#7CC9D0"/>
<path d="M1672.28 1804.92H1653.45V1797.05C1653.45 1786.3 1645.16 1777.56 1634.97 1777.56H1601.06C1590.87 1777.56 1582.58 1786.3 1582.58 1797.05V1804.92H1563.75C1553.83 1804.92 1545.79 1813.41 1545.79 1823.87V1843.29C1555.64 1846.99 1572.55 1852.03 1595.57 1854.15C1596.72 1846.4 1603.07 1840.46 1610.73 1840.46H1625.3C1632.96 1840.46 1639.31 1846.41 1640.46 1854.15C1663.48 1852.03 1680.39 1846.99 1690.24 1843.29V1823.87C1690.24 1813.41 1682.2 1804.92 1672.28 1804.92ZM1596.56 1797.05C1596.56 1794.43 1598.58 1792.3 1601.06 1792.3H1634.97C1637.45 1792.3 1639.48 1794.43 1639.48 1797.05V1804.92H1596.56V1797.05Z" fill="#7CC9D0"/>
<path d="M1640.67 1874.6C1640.67 1883.54 1633.77 1890.82 1625.3 1890.82H1610.73C1602.25 1890.82 1595.36 1883.54 1595.36 1874.6V1868.92C1573.66 1867.02 1556.98 1862.69 1545.79 1858.88V1901.15C1545.79 1911.61 1553.83 1920.09 1563.75 1920.09H1672.28C1682.2 1920.09 1690.24 1911.61 1690.24 1901.15V1858.88C1679.05 1862.69 1662.36 1867.02 1640.67 1868.92L1640.67 1874.6Z" fill="#7CC9D0"/>
<path d="M2121.7 1514.11C2108.5 1502.42 2091.18 1493.04 2071.41 1485.04C1934.32 1434.14 1734.15 1439.96 1585.37 1481.73C1658.79 1394.93 1754.59 1347.78 1865.61 1322.47C1865.55 1321.35 1860.72 1320.67 1852 1320.37C1728.91 1321.88 1602.49 1396.76 1527.33 1501.48C1471.73 1524.22 1420.49 1556.09 1373.97 1594.51C1368.65 1453.09 1351.68 1312.54 1321.21 1177.12C1317.01 1158.47 1327.61 1139.78 1345.09 1134.57C1382.91 1123.3 1419.05 1101.12 1446.28 1075.82C1468.53 1054.73 1484.22 1027.67 1501.4 1002.46C1519.5 975.867 1542.5 952.503 1567.35 933.286C1597.51 909.749 1622.95 894.584 1652.05 876.353C1661.14 870.122 1686.27 856.485 1686.2 849.178C1682.25 843.547 1657.56 848.971 1648.15 851.08C1612.4 859.423 1576.29 872.7 1539.86 892.2C1511.32 907.558 1484.92 927.461 1462.02 951.138C1462.7 946.947 1463.39 942.793 1464.03 938.7C1480.41 840.21 1514.83 762.918 1591.64 702.165C1602 693.582 1634.01 672.572 1600.37 686.383C1537.35 715.141 1489.4 773.492 1460.6 840.389C1450.57 795.027 1454.71 744.046 1475.14 703.429C1487 678.971 1492.64 668.271 1477.16 688.411C1440.55 737.754 1432.18 807.362 1450.41 866.7C1445.32 881.392 1441.13 896.35 1437.89 911.369C1431.47 939.825 1423.8 967.6 1423.2 995.526C1419.44 999.714 1415.62 1003.78 1411.66 1007.61C1386.51 1032.28 1328.69 1060.29 1289.05 1053.15C1287.24 1047.04 1285.41 1040.94 1283.54 1034.86C1189.04 767.377 1197.05 500.932 1408.94 309.341C1463.15 267.906 1558.99 211.021 1557.85 208.471C1556.72 205.936 1515.38 216.501 1503.71 221.282C1464.31 237.15 1416.13 264.407 1376.63 293.47C1266.97 372.578 1196.23 477.46 1159.31 595.382C1157.81 576.159 1155.13 557.078 1150.58 538.237C1134.08 475.94 1096.04 416.045 1048.41 371.461C1033.4 318.171 1022.59 243.416 1021.6 191.113C1021.11 181.99 1020.48 180.715 1019.64 190.082C1015.79 243.011 1021.93 304.281 1034.78 359.344C1014.6 342.317 993 328.051 970.801 317.447C943.626 305.265 916.487 294.316 888.428 295.522C968.308 323.054 1032.18 366.54 1080.87 444.719C1099.02 474.153 1114.47 506.125 1122.72 540.294C1135.05 591.342 1129.86 645.41 1127.09 697.2C1124.49 740.838 1123.94 785.524 1128.48 827.687C1129.34 861.837 1132.33 896.343 1137.38 930.972C1099.39 919.928 1064.33 900.362 1031.78 870.218C958.728 802.089 888.333 718.539 801.551 673.852C787.907 666.323 737.214 641.87 771.152 673.353C831.67 725.618 889.994 788.136 941.591 854.872C961.312 880.517 981.375 903.742 1002.53 924.053C939.817 928.011 877.02 938.476 816.188 955.877C797.132 951.647 770.662 944.475 751.698 937.304C733.207 931.5 708.343 917.827 695.704 915.36C717.695 937.024 752.927 953.877 785.944 965.152C742.894 979.28 701.026 996.992 661.111 1018.49C644.23 1028.26 642.829 1031.25 661.651 1025.53C725.962 1003.76 806.31 980.103 881.72 969.445C934.758 961.474 989.419 957.894 1042.99 958.115C1061.59 971.608 1081.22 982.946 1102.3 991.854C1134.35 1005.39 1158.59 1033.89 1167.32 1069.12C1171.11 1084.42 1174.76 1099.46 1177.15 1110.09C1205.35 1246.8 1220.43 1388.16 1223.69 1530.35C1129.67 1545.81 1046.3 1499.69 963.896 1455.92C955.584 1416.92 937.702 1377.91 912.534 1346.3C909.147 1317.17 914.919 1286.91 928.145 1261.08C930.232 1256.13 941.099 1239.84 931.25 1246.87C910.023 1264.33 896.709 1294.31 893.077 1324.81C864.986 1297.66 830.377 1279.42 791.425 1277.19C763.876 1277.28 800.622 1286.88 810.403 1292.47C845.71 1307.89 874.203 1335.42 894.982 1368.81C895.078 1369.23 895.161 1369.66 895.262 1370.09L895.704 1369.97C908.078 1390.1 917.662 1412.33 924.261 1435.3C869.923 1407.99 815.327 1386.19 757.687 1388.24C743.777 1387.75 685.836 1405.4 732.223 1406.33C845.508 1413.85 936.217 1511.9 1048.39 1567.11C1012.38 1577.66 978.553 1594.06 946.522 1615.19C927.844 1611.86 873.056 1614.88 864.403 1620.09C873.706 1622.34 909.964 1622.22 932.921 1624.51C908.399 1641.97 884.924 1662.18 862.307 1684.63C815.578 1727.32 810.349 1735.25 862.21 1695.23C930.363 1637.4 998.534 1594.82 1078.78 1580.69C1104.75 1591.09 1131.99 1598.75 1160.98 1602.2C1197.12 1606.51 1224.16 1639.22 1222.88 1677.55C1216.81 1859.42 1192.12 2040.48 1151.45 2212.72C1136.24 2277.15 1081.24 2322.26 1018.3 2322.26H816.651C787.459 2322.26 763.795 2347.22 763.795 2378.01H1640.32C1640.32 2347.22 1616.65 2322.26 1587.46 2322.26H1473.07C1387.91 2322.26 1323.23 2241.32 1337.79 2152.82C1356.73 2037.65 1369.08 1919.04 1373.74 1799.55C1375.45 1755.61 1393.79 1714.12 1424.76 1684.68C1508.05 1605.52 1597.2 1562.78 1703.4 1537.57C1743.4 1547.28 1780.85 1575.63 1804.91 1610.63C1822.34 1635.12 1835.9 1665.51 1844.93 1692.23C1852.9 1715.65 1856.93 1731.52 1859.16 1731.14C1865.07 1717.47 1853.1 1660.15 1844.14 1637.94C1829.31 1593.56 1798.61 1552.13 1759.99 1525.98C1798.3 1519.25 1838.8 1514.18 1881.96 1510.02C1940.45 1505.14 2000.05 1504.55 2055.61 1511.83C2069.99 1513.75 2082.41 1515.97 2092.63 1518C2113.05 1522.08 2124.85 1525.21 2126.38 1522.1C2127.11 1520.61 2125.52 1517.92 2121.7 1514.11Z" fill="#564644"/>
<path d="M1638.62 12.868C1538.54 37.674 1420.2 102.326 1384.88 287.513C1469.69 359.349 1547.93 392.116 1668.37 416.819C1931.45 470.779 2060.91 243.775 2107.37 0C2018.69 32.059 1738.7 -11.938 1638.62 12.868Z" fill="#FFC20D"/>
<path d="M1086.19 155.109C1062.87 169.748 1037.97 195.947 1043.05 245.512C1069.81 256.473 1091.97 258.154 1124.14 254.264C1194.41 245.769 1209.87 177.782 1203.17 112.54C1183.28 128.048 1109.5 140.47 1086.19 155.109Z" fill="#FDD996"/>
<path d="M1066.75 502.635C1090.06 517.274 1114.97 543.473 1109.89 593.038C1083.13 603.999 1060.97 605.68 1028.8 601.79C958.529 593.295 943.07 525.308 949.762 460.066C969.66 475.574 1043.44 487.996 1066.75 502.635Z" fill="#F7C9C4"/>
<path d="M1554.85 1319.05C1578.16 1333.69 1603.07 1359.89 1597.99 1409.45C1571.23 1420.41 1549.07 1422.09 1516.9 1418.2C1446.63 1409.71 1431.17 1341.72 1437.86 1276.48C1457.76 1291.99 1531.53 1304.41 1554.85 1319.05Z" fill="#CBE7E3"/>
<path d="M845.363 1155.4C868.676 1170.03 893.58 1196.23 888.503 1245.8C861.742 1256.76 839.584 1258.44 807.414 1254.55C737.143 1246.06 721.683 1178.07 728.375 1112.83C748.273 1128.33 822.049 1140.76 845.363 1155.4Z" fill="#A69AC1"/>
<path d="M592.156 1117C615.469 1102.36 640.374 1076.16 635.297 1026.6C608.536 1015.63 586.378 1013.95 554.208 1017.84C483.937 1026.34 468.477 1094.33 475.169 1159.57C495.067 1144.06 568.843 1131.64 592.156 1117Z" fill="#FCE1D1"/>
<path d="M634.944 925.272C650.893 935.287 667.93 953.21 664.457 987.117C646.15 994.615 630.991 995.765 608.984 993.105C560.911 987.293 550.335 940.783 554.914 896.151C568.525 906.759 618.996 915.257 634.944 925.272Z" fill="#F7C9C4"/>
<path d="M1774.73 1231.64C1758.78 1241.65 1741.74 1259.57 1745.22 1293.48C1763.52 1300.98 1778.68 1302.13 1800.69 1299.47C1848.76 1293.66 1859.34 1247.15 1854.76 1202.51C1841.15 1213.12 1790.68 1221.62 1774.73 1231.64Z" fill="#E0BCD2"/>
<path d="M1026.62 1674.53C1015.1 1659.18 996.009 1643.73 964.603 1651.84C959.974 1671.97 960.895 1687.97 966.301 1710.63C978.11 1760.13 1023.21 1765.05 1064.55 1754.37C1052.78 1741.53 1038.13 1689.88 1026.62 1674.53Z" fill="#A0C9ED"/>
<path d="M973.559 165.909C989.507 175.924 1006.54 193.847 1003.07 227.754C984.764 235.252 969.605 236.402 947.598 233.742C899.525 227.93 888.949 181.42 893.528 136.787C907.14 147.397 957.61 155.894 973.559 165.909Z" fill="#FDE6CE"/>
<path d="M1532.82 580.226C1513.86 600.696 1496.18 632.768 1513.17 679.289C1541.7 682.624 1563.52 678.239 1593.66 665.756C1659.5 638.489 1657.87 568.595 1635.5 507.361C1620.05 527.744 1551.78 559.756 1532.82 580.226Z" fill="#D499CB"/>
<path d="M1693.5 1667.8C1713.55 1648.52 1732.96 1617.58 1718.56 1570.1C1690.26 1565.03 1668.23 1568.07 1637.46 1578.7C1570.23 1601.89 1568.02 1671.77 1586.99 1734.27C1603.53 1714.86 1673.45 1687.08 1693.5 1667.8Z" fill="#B7E0DE"/>
<path d="M1616.15 1278.7C1627.9 1304.49 1650.43 1332.98 1697.69 1332.04C1710.41 1304.9 1713.96 1281.77 1713.14 1247.62C1711.35 1173.04 1648.53 1150.77 1586.32 1152.01C1599.2 1174.29 1604.39 1252.91 1616.15 1278.7Z" fill="#AEC3D1"/>
<path d="M1365.42 658.118C1377.18 683.91 1399.71 712.401 1446.96 711.461C1459.69 684.318 1463.24 661.186 1462.42 627.04C1460.63 552.456 1397.8 530.183 1335.6 531.428C1348.48 553.711 1353.67 632.326 1365.42 658.118Z" fill="#E0A9CB"/>
<path d="M1019.52 1341.39C993.432 1349.25 958.276 1350.4 927.561 1312.51C938.35 1284.45 952.387 1266.29 977.133 1244.26C1031.19 1196.14 1088.7 1230.9 1129.12 1280.78C1104.78 1285.42 1045.61 1333.54 1019.52 1341.39Z" fill="#B9DDF6"/>
<path d="M610.767 300.085C733.857 358.512 871.023 473.123 872.544 721.136C746.166 791.301 637.548 812.85 476.45 812.85C124.563 812.85 11.6393 486.054 9.67969 159.585C116.357 224.347 487.677 241.658 610.767 300.085Z" fill="#F7A6B0"/>
<path d="M1614.72 859.146C1736.8 605.182 2235.28 479.988 2571 902.07C2088.76 1352.77 1689.32 1105.96 1614.72 859.146Z" fill="#B96FAE"/>
<path d="M33.394 1905.88C133.737 1766.96 321.489 1789.54 359.804 1794.65C613.404 1831.95 768.484 1639.32 811.088 1392.44C503.748 1281.85 277.309 1340.86 126.999 1474.48C33.8406 1573.34 -48.1338 1729.47 33.394 1905.88Z" fill="#558DD1"/>
<path d="M875.783 1892.73C870.839 1852.52 905.327 1823.9 912.444 1818.14C960.081 1780.62 955.857 1722.11 924.667 1674.01C856.812 1708.7 828.569 1757.45 824.445 1805.4C824.372 1837.76 835.013 1877.66 875.783 1892.73Z" fill="#87B5E3"/>
<path d="M1753.15 1883.77C1776.06 1851.21 1759.19 1808.48 1755.64 1799.79C1731.41 1742.52 1762.15 1693.62 1811.62 1667.69C1854.82 1732.88 1856.92 1789.97 1838.35 1833.95C1823.45 1862.24 1795.71 1891.59 1753.15 1883.77Z" fill="#A3D8DA"/>
<path d="M2408.04 2144.02C2376.31 1999.35 1767.47 1994.14 1975.45 1459.31C2250.3 1486.92 2406.25 1616.16 2478.46 1775.15C2517.9 1886.12 2529.69 2037.36 2408.04 2144.02Z" fill="#7CC9D0"/>
<path d="M2234.02 1799.42C2235 1799.42 2235.8 1798.57 2235.8 1797.54V1774.7C2235.8 1773.66 2235 1772.82 2234.02 1772.82H2215.46C2214.48 1772.82 2213.68 1773.66 2213.68 1774.7V1797.54C2213.68 1798.57 2214.48 1799.42 2215.46 1799.42H2234.02Z" fill="white"/>
<path d="M2293.86 1708.79H2269.87V1698.76C2269.87 1685.07 2259.32 1673.93 2246.34 1673.93H2203.15C2190.17 1673.93 2179.61 1685.07 2179.61 1698.76V1708.79H2155.63C2142.99 1708.79 2132.75 1719.59 2132.75 1732.92V1757.66C2145.3 1762.36 2166.83 1768.78 2196.15 1771.48C2197.62 1761.62 2205.71 1754.05 2215.46 1754.05H2234.02C2243.77 1754.05 2251.86 1761.62 2253.33 1771.48C2282.65 1768.78 2304.18 1762.37 2316.74 1757.66V1732.92C2316.73 1719.59 2306.49 1708.79 2293.86 1708.79ZM2197.41 1698.76C2197.41 1695.42 2199.98 1692.71 2203.15 1692.71H2246.34C2249.5 1692.71 2252.08 1695.42 2252.08 1698.76V1708.79H2197.41L2197.41 1698.76Z" fill="white"/>
<path d="M2253.59 1797.54C2253.59 1808.93 2244.81 1818.19 2234.02 1818.19H2215.46C2204.67 1818.19 2195.89 1808.93 2195.89 1797.54V1790.3C2168.25 1787.88 2147 1782.37 2132.75 1777.52V1831.35C2132.75 1844.68 2142.99 1855.48 2155.63 1855.48H2293.86C2306.49 1855.48 2316.73 1844.68 2316.73 1831.35V1777.52C2302.48 1782.37 2281.23 1787.88 2253.59 1790.3V1797.54Z" fill="white"/>
<path d="M387.327 1588.48C387.327 1586.03 385.44 1584.04 383.111 1584.04H371.006C368.678 1584.04 366.79 1586.03 366.79 1588.48V1601.25C366.79 1603.71 368.678 1605.7 371.006 1605.7H383.111C385.44 1605.7 387.327 1603.71 387.327 1601.25V1588.48Z" fill="white"/>
<path d="M424.204 1588.48C424.204 1586.03 422.317 1584.04 419.988 1584.04H407.882C405.553 1584.04 403.666 1586.03 403.666 1588.48V1601.25C403.666 1603.71 405.553 1605.7 407.882 1605.7H419.988C422.317 1605.7 424.204 1603.71 424.204 1601.25V1588.48Z" fill="white"/>
<path d="M444.765 1584.04C442.432 1584.04 440.546 1586.03 440.546 1588.48V1601.25C440.546 1603.71 442.432 1605.7 444.765 1605.7H456.681L461.08 1597.35V1588.48C461.08 1586.03 459.194 1584.04 456.871 1584.04H444.765Z" fill="white"/>
<path d="M383.111 1617.3H371.006C368.678 1617.3 366.79 1619.29 366.79 1621.74V1634.51C366.79 1636.97 368.678 1638.96 371.006 1638.96H383.111C385.44 1638.96 387.327 1636.97 387.327 1634.51V1621.74C387.327 1619.29 385.44 1617.3 383.111 1617.3Z" fill="white"/>
<path d="M419.988 1617.3H407.882C405.553 1617.3 403.666 1619.29 403.666 1621.74V1634.51C403.666 1636.97 405.553 1638.96 407.882 1638.96H419.988C422.317 1638.96 424.204 1636.97 424.204 1634.51V1621.74C424.204 1619.29 422.317 1617.3 419.988 1617.3Z" fill="white"/>
<path d="M444.765 1617.29C442.432 1617.29 440.546 1619.29 440.546 1621.74V1634.51C440.546 1635 440.622 1635.48 440.764 1635.92L450.576 1617.29H444.765Z" fill="white"/>
<path d="M434.82 1650.9H352.388V1569.6H475.481V1570L494.28 1534.3C493.285 1526.35 487.72 1519.91 480.467 1518.01V1528.38C480.467 1540.83 470.864 1550.95 459.07 1550.95C447.267 1550.95 437.664 1540.83 437.664 1528.38V1517.44H390.205V1528.38C390.205 1540.83 380.602 1550.95 368.799 1550.95C356.996 1550.95 347.402 1540.83 347.402 1528.38V1518.01C339.381 1520.11 333.428 1527.76 333.428 1536.87V1651.47C333.428 1662.2 341.676 1670.9 351.848 1670.9H437.797L435.151 1657.69C434.706 1655.44 434.592 1653.15 434.82 1650.9Z" fill="white"/>
<path d="M368.802 1535.96C372.768 1535.96 375.983 1532.56 375.983 1528.38V1507.64C375.983 1503.46 372.768 1500.07 368.802 1500.07C364.837 1500.07 361.622 1503.46 361.622 1507.64V1528.38C361.622 1532.56 364.837 1535.96 368.802 1535.96Z" fill="white"/>
<path d="M459.067 1535.96C463.033 1535.96 466.248 1532.56 466.248 1528.38V1507.64C466.248 1503.46 463.033 1500.07 459.067 1500.07C455.102 1500.07 451.887 1503.46 451.887 1507.64V1528.38C451.887 1532.56 455.102 1535.96 459.067 1535.96Z" fill="white"/>
<path d="M528.699 1580.54L502.02 1564.91C498.816 1563.03 494.776 1564.25 492.996 1567.63L449.757 1649.74C448.98 1651.22 448.734 1652.94 449.066 1654.59L453.879 1678.6C454.277 1680.58 455.47 1682.28 457.15 1683.27C458.83 1684.25 460.831 1684.42 462.637 1683.73L484.502 1675.35C486.006 1674.78 487.261 1673.65 488.039 1672.17L531.277 1590.06C533.058 1586.68 531.903 1582.42 528.699 1580.54ZM462.374 1671.22L458.999 1654.39L480.228 1666.83L464.9 1672.7C463.806 1673.12 462.614 1672.42 462.374 1671.22Z" fill="white"/>
<path d="M540.772 1540.81L527.559 1533.07C520.648 1529.02 511.902 1531.66 508.063 1538.95L503.677 1547.35C501.898 1550.73 503.051 1554.99 506.256 1556.87L532.935 1572.5C536.139 1574.37 540.179 1573.16 541.958 1569.78L546.344 1561.38C550.183 1554.09 547.685 1544.86 540.772 1540.81Z" fill="white"/>
<path d="M1830.33 155.281C1827.94 152.573 1824.55 151.02 1821.04 151.02H1804.38C1804.49 147.801 1804.56 144.518 1804.56 141.122H1785.67L1786.09 142.494C1787.95 148.512 1787 154.878 1783.5 159.963C1780 165.032 1774.39 168.06 1768.48 168.06C1764.58 168.06 1760.82 166.764 1757.62 164.312L1748.46 157.288L1739.29 164.312C1736.09 166.763 1732.34 168.059 1728.44 168.06H1728.43C1722.52 168.06 1716.91 165.034 1713.42 159.964C1709.92 154.879 1708.97 148.511 1710.82 142.494L1711.25 141.122H1692.36C1692.36 144.518 1692.43 147.801 1692.53 151.02H1675.88C1672.37 151.02 1668.98 152.573 1666.59 155.281C1664.19 157.993 1662.96 161.671 1663.21 165.374C1663.91 175.938 1666.37 191.316 1674.08 204.581C1682.68 219.373 1696 227.965 1712.85 229.723C1719.88 239.868 1728.1 246.09 1736.48 248.928C1736.48 260.272 1726.91 267.736 1716.14 271.74C1714.48 272.355 1713.15 273.683 1712.52 275.41C1710.93 279.711 1710 284.29 1709.76 291.936C1709.7 294.095 1711.35 295.884 1713.4 295.884H1783.52C1785.57 295.884 1787.22 294.095 1787.16 291.936C1786.93 284.291 1785.99 279.712 1784.41 275.41C1783.77 273.683 1782.44 272.355 1780.78 271.74C1770.01 267.737 1760.45 260.272 1760.45 248.928C1768.82 246.09 1777.04 239.868 1784.07 229.723C1800.92 227.966 1814.24 219.374 1822.84 204.581C1830.55 191.316 1833.01 175.938 1833.71 165.374C1833.96 161.671 1832.73 157.993 1830.33 155.281ZM1673.16 164.633C1673.09 163.538 1673.59 162.8 1673.89 162.457C1674.19 162.117 1674.85 161.546 1675.88 161.546H1693.08C1694.79 185.39 1699.5 203.895 1705.98 217.692C1691.46 213.455 1675.56 200.49 1673.16 164.633ZM1790.94 217.693C1797.42 203.896 1802.13 185.391 1803.84 161.547H1821.04C1822.07 161.547 1822.73 162.117 1823.03 162.458C1823.33 162.801 1823.83 163.539 1823.75 164.634C1821.36 200.49 1805.45 213.455 1790.94 217.693Z" fill="white"/>
<path d="M1713.52 111.967L1728.53 123.47C1730.03 124.619 1730.65 126.657 1730.08 128.517L1724.35 147.129C1723.07 151.288 1727.58 154.746 1730.93 152.176L1745.94 140.673C1747.44 139.524 1749.47 139.524 1750.97 140.673L1765.98 152.176C1769.34 154.746 1773.85 151.288 1772.57 147.129L1766.83 128.517C1766.26 126.657 1766.89 124.62 1768.39 123.47L1783.4 111.967C1786.75 109.397 1785.03 103.801 1780.88 103.801H1762.33C1760.48 103.801 1758.83 102.542 1758.26 100.682L1752.53 82.0699C1751.25 77.9109 1745.67 77.9109 1744.39 82.0699L1738.65 100.682C1738.08 102.542 1736.44 103.801 1734.58 103.801H1716.03C1711.89 103.801 1710.16 109.397 1713.52 111.967Z" fill="white"/>
<path d="M347.258 601.862H373.243V550.372L347.258 576.992V601.862Z" fill="white"/>
<path d="M393.758 529.362V601.862H419.743V531.142L405.959 516.862L393.758 529.362Z" fill="white"/>
<path d="M440.259 552.402V601.862H466.244V530.862L444.819 557.122L440.259 552.402Z" fill="white"/>
<path d="M486.76 505.712V601.862H512.745V479.852L509.939 477.302L486.76 505.712Z" fill="white"/>
<path d="M483.895 433.872L495.499 444.404L442.901 508.882L406.081 470.736L346.644 531.623V556.714L406.013 495.896L443.949 535.196L508.434 456.145L517.512 466.677V433.872H483.895Z" fill="white"/>
<path d="M2127.67 875.733H2113.14C2111.79 870.49 2109.82 865.522 2107.31 860.912L2117.59 850.067C2120.56 846.935 2120.56 841.857 2117.59 838.725L2106.02 826.514C2103.05 823.382 2098.24 823.382 2095.27 826.514L2084.99 837.358C2080.62 834.716 2075.91 832.635 2070.93 831.211V815.883C2070.93 811.454 2067.53 807.863 2063.33 807.863H2046.96C2042.76 807.863 2039.36 811.454 2039.36 815.883V831.211C2034.39 832.635 2029.68 834.716 2025.31 837.358L2015.02 826.513C2012.06 823.381 2007.24 823.381 2004.27 826.513L1992.7 838.724C1989.73 841.856 1989.73 846.934 1992.7 850.066L2002.98 860.911C2000.47 865.52 1998.5 870.489 1997.15 875.731H1982.62C1978.42 875.731 1975.01 879.322 1975.01 883.751V901.02C1975.01 905.449 1978.42 909.04 1982.62 909.04H1997.15C1998.5 914.283 2000.47 919.252 2002.98 923.861L1992.7 934.706C1989.73 937.838 1989.73 942.916 1992.7 946.048L2004.27 958.259C2007.24 961.391 2012.06 961.391 2015.02 958.259L2025.31 947.414C2029.68 950.056 2034.39 952.137 2039.36 953.561V968.889C2039.36 973.318 2042.76 976.909 2046.96 976.909H2063.33C2067.53 976.909 2070.93 973.318 2070.93 968.889V953.561C2075.91 952.137 2080.61 950.056 2084.99 947.414L2095.27 958.258C2098.24 961.39 2103.05 961.39 2106.02 958.258L2117.59 946.047C2120.56 942.915 2120.56 937.837 2117.59 934.705L2107.31 923.861C2109.82 919.252 2111.79 914.283 2113.14 909.04H2127.67C2131.87 909.04 2135.28 905.449 2135.28 901.02V883.751C2135.27 879.323 2131.87 875.733 2127.67 875.733ZM2055.14 923.262C2038.98 923.262 2025.87 909.439 2025.87 892.387C2025.87 875.335 2038.98 861.512 2055.14 861.512C2071.31 861.512 2084.41 875.335 2084.41 892.387C2084.41 909.439 2071.31 923.262 2055.14 923.262Z" fill="white"/>
</svg>
