<svg width="512" height="512" viewBox="0 0 512 512" fill="none" xmlns="http://www.w3.org/2000/svg">
<mask id="mask0_1125_1081" style="mask-type:luminance" maskUnits="userSpaceOnUse" x="0" y="0" width="512" height="512">
<path d="M0 3.05176e-05H512V512H0V3.05176e-05Z" fill="white"/>
</mask>
<g mask="url(#mask0_1125_1081)">
<path d="M219.312 377.383L147.379 501.975L129.777 436.287L63.8467 453.953L132.869 334.403" stroke="#444971" stroke-width="20" stroke-miterlimit="10" stroke-linecap="round" stroke-linejoin="round"/>
<path d="M378.862 333.938L448.152 453.952L382.222 436.286L364.62 501.975L292.323 376.753" stroke="#444971" stroke-width="20" stroke-miterlimit="10" stroke-linecap="round" stroke-linejoin="round"/>
<path d="M273.829 13.5973C293.755 5.44225 316.674 11.5832 329.852 28.6082C337.543 38.5442 348.829 45.0602 361.279 46.7522C382.613 49.6532 399.39 66.4302 402.291 87.7642C403.983 100.214 410.499 111.5 420.435 119.191C437.46 132.369 443.601 155.288 435.446 175.214C430.687 186.842 430.687 199.874 435.446 211.502C443.601 231.428 437.46 254.346 420.435 267.525C410.499 275.216 403.983 286.502 402.291 298.951V298.952C399.39 320.285 382.613 337.063 361.279 339.964C348.829 341.656 337.543 348.172 329.852 358.107C316.674 375.133 293.755 381.274 273.829 373.119C262.201 368.36 249.169 368.36 237.541 373.119C217.615 381.274 194.697 375.133 181.518 358.107C173.827 348.172 162.541 341.656 150.092 339.964C128.759 337.063 111.98 320.285 109.08 298.952V298.951C107.387 286.502 100.871 275.216 90.936 267.525C73.91 254.346 67.769 231.428 75.924 211.502C80.683 199.874 80.683 186.842 75.924 175.214C67.769 155.288 73.91 132.369 90.936 119.191C100.871 111.5 107.387 100.214 109.08 87.7642C111.98 66.4302 128.758 49.6532 150.091 46.7522C162.54 45.0602 173.827 38.5442 181.518 28.6082C194.697 11.5832 217.615 5.44225 237.541 13.5973C249.169 18.3563 262.201 18.3563 273.829 13.5973Z" stroke="#444971" stroke-width="20" stroke-miterlimit="10" stroke-linecap="round" stroke-linejoin="round"/>
<path d="M244.55 252.905L186.197 194.551L217.311 163.439L244.55 190.679L294.688 140.542L325.8 171.655L244.55 252.905Z" stroke="#444971" stroke-width="20" stroke-miterlimit="10" stroke-linecap="round" stroke-linejoin="round"/>
<path d="M211.787 85.1305C167.393 102.735 136 146.063 136 196.724C136 262.998 189.726 316.724 256 316.724C322.274 316.724 376 262.998 376 196.724C376 146.063 344.607 102.735 300.214 85.1305" stroke="#444971" stroke-width="20" stroke-miterlimit="10" stroke-linecap="round" stroke-linejoin="round"/>
</g>
</svg>
