<svg id="_25_Life_Jacket" enable-background="new 0 0 512 512" viewBox="0 0 512 512" xmlns="http://www.w3.org/2000/svg" xmlns:xlink="http://www.w3.org/1999/xlink"><linearGradient id="lg1"><stop offset="0" stop-color="#fac600"/><stop offset=".2627" stop-color="#fac204"/><stop offset=".5349" stop-color="#fbb810"/><stop offset=".8104" stop-color="#fca625"/><stop offset="1" stop-color="#fe9738"/></linearGradient><linearGradient id="SVGID_1_" gradientTransform="matrix(1 0 0 -1 0 514)" gradientUnits="userSpaceOnUse" x1="204.718" x2="298.473" xlink:href="#lg1" y1="516.443" y2="336.927"/><linearGradient id="lg2"><stop offset="0" stop-color="#fe9038" stop-opacity="0"/><stop offset=".1207" stop-color="#fe8f37" stop-opacity=".016"/><stop offset=".2459" stop-color="#fe8d36" stop-opacity=".065"/><stop offset=".3731" stop-color="#fe8a35" stop-opacity=".147"/><stop offset=".5018" stop-color="#fe8632" stop-opacity=".262"/><stop offset=".6317" stop-color="#fe812f" stop-opacity=".41"/><stop offset=".7625" stop-color="#fe7b2c" stop-opacity=".59"/><stop offset=".8916" stop-color="#fe7327" stop-opacity=".8"/><stop offset="1" stop-color="#fe6d24"/></linearGradient><linearGradient id="SVGID_00000031921629726714598590000016840326046847393716_" gradientTransform="matrix(1 0 0 -1 0 514)" gradientUnits="userSpaceOnUse" x1="286.478" x2="173.078" xlink:href="#lg2" y1="383.11" y2="383.11"/><linearGradient id="SVGID_00000134935880595064294480000005622863298266850488_" gradientTransform="matrix(1 0 0 -1 0 514)" gradientUnits="userSpaceOnUse" x1="261.914" x2="207.405" xlink:href="#lg2" y1="428.745" y2="332.083"/><linearGradient id="lg3"><stop offset="0" stop-color="#766e6e"/><stop offset=".2493" stop-color="#716b6b"/><stop offset=".5076" stop-color="#656464"/><stop offset=".769" stop-color="#505757"/><stop offset="1" stop-color="#384949"/></linearGradient><linearGradient id="SVGID_00000070835851951960670680000012182160223540019883_" gradientTransform="matrix(1 0 0 -1 0 514)" gradientUnits="userSpaceOnUse" x1="119.085" x2="381.818" xlink:href="#lg3" y1="338.204" y2="183.399"/><linearGradient id="lg4"><stop offset="0" stop-color="#3e4648" stop-opacity="0"/><stop offset=".3165" stop-color="#3b4144" stop-opacity=".107"/><stop offset=".6443" stop-color="#323539" stop-opacity=".426"/><stop offset=".9762" stop-color="#252028" stop-opacity=".954"/><stop offset="1" stop-color="#241f27"/></linearGradient><linearGradient id="SVGID_00000147935994560799098190000011395769208607212469_" gradientTransform="matrix(1 0 0 -1 0 514)" gradientUnits="userSpaceOnUse" x1="267.467" x2="197.606" xlink:href="#lg4" y1="260.459" y2="242.638"/><linearGradient id="SVGID_00000061452274249487290710000010792997743336680064_" gradientTransform="matrix(1 0 0 -1 0 514)" gradientUnits="userSpaceOnUse" x1="24.732" x2="231.19" xlink:href="#lg1" y1="258" y2="258"/><linearGradient id="SVGID_00000116914815980903511460000015217083040051786147_" gradientTransform="matrix(1 0 0 -1 0 514)" gradientUnits="userSpaceOnUse" x1="190.439" x2="243.869" xlink:href="#lg2" y1="258" y2="258"/><linearGradient id="SVGID_00000095312887901649746530000008726138026990720388_" gradientTransform="matrix(1 0 0 -1 0 514)" gradientUnits="userSpaceOnUse" x1="141.112" x2="141.112" xlink:href="#lg2" y1="74.497" y2="1.325"/><linearGradient id="SVGID_00000177462700673352837350000013005794246124549039_" gradientTransform="matrix(1 0 0 -1 0 514)" gradientUnits="userSpaceOnUse" x1="141.113" x2="141.113" xlink:href="#lg2" y1="127.554" y2="159.76"/><linearGradient id="SVGID_00000110428476305972266250000004850137388131694757_" gradientTransform="matrix(1 0 0 -1 0 514)" gradientUnits="userSpaceOnUse" x1="301.092" x2="466.285" xlink:href="#lg1" y1="258" y2="258"/><linearGradient id="SVGID_00000093878320828448786510000008759478727307252152_" gradientTransform="matrix(-1 0 0 -1 560.583 514)" gradientUnits="userSpaceOnUse" x1="189.698" x2="189.698" xlink:href="#lg2" y1="74.497" y2="1.325"/><linearGradient id="SVGID_00000075870532551413774390000002643243472369122445_" gradientTransform="matrix(1 0 0 -1 0 514)" gradientUnits="userSpaceOnUse" x1="141.113" x2="141.113" xlink:href="#lg2" y1="19.198" y2="51.023"/><linearGradient id="SVGID_00000024687801751836629850000010402262533979468706_" gradientTransform="matrix(1 0 0 -1 0 514)" gradientUnits="userSpaceOnUse" x1="370.883" x2="370.883" xlink:href="#lg2" y1="19.198" y2="51.023"/><linearGradient id="SVGID_00000093862282471244923790000013627734430923736223_" gradientTransform="matrix(1 0 0 -1 0 514)" gradientUnits="userSpaceOnUse" x1="425.917" x2="476.077" xlink:href="#lg2" y1="258" y2="258"/><linearGradient id="SVGID_00000111179241101063631320000005056682593504706733_" gradientTransform="matrix(1 0 0 -1 0 514)" gradientUnits="userSpaceOnUse" x1="370.883" x2="370.883" xlink:href="#lg2" y1="127.554" y2="159.76"/><linearGradient id="SVGID_00000005236859544303278850000015802245338019024044_" gradientTransform="matrix(1 0 0 -1 0 514)" gradientUnits="userSpaceOnUse" x1="255.998" x2="255.998" xlink:href="#lg3" y1="212.386" y2="156.668"/><linearGradient id="SVGID_00000018200963179755894280000003799565245431478413_" gradientTransform="matrix(1 0 0 -1 0 514)" gradientUnits="userSpaceOnUse" x1="450.107" x2="486.908" xlink:href="#lg4" y1="187.525" y2="187.525"/><linearGradient id="SVGID_00000155146070788744506320000006328588080356743863_" gradientTransform="matrix(1 0 0 -1 0 514)" gradientUnits="userSpaceOnUse" x1="324.404" x2="297.315" xlink:href="#lg4" y1="187.525" y2="187.525"/><linearGradient id="SVGID_00000026163624803862276730000015775727429639915196_" gradientTransform="matrix(1 0 0 -1 0 514)" gradientUnits="userSpaceOnUse" x1="255.998" x2="255.998" xlink:href="#lg3" y1="102.299" y2="46.581"/><linearGradient id="SVGID_00000055697312224454546080000002926524953947172272_" gradientTransform="matrix(1 0 0 -1 0 514)" gradientUnits="userSpaceOnUse" x1="324.404" x2="297.315" xlink:href="#lg4" y1="77.441" y2="77.441"/><linearGradient id="SVGID_00000177454229884067207930000012502186106240018087_" gradientTransform="matrix(1 0 0 -1 0 514)" gradientUnits="userSpaceOnUse" x1="450.107" x2="486.908" xlink:href="#lg4" y1="77.44" y2="77.44"/><linearGradient id="lg5"><stop offset="0" stop-color="#faf7f7"/><stop offset=".3084" stop-color="#f7f3f2"/><stop offset=".6279" stop-color="#efe8e6"/><stop offset=".9515" stop-color="#e3d6d1"/><stop offset="1" stop-color="#e1d3ce"/></linearGradient><linearGradient id="SVGID_00000098902184187612524410000001997505685906917514_" gradientTransform="matrix(1 0 0 -1 0 514)" gradientUnits="userSpaceOnUse" x1="233.357" x2="274.941" xlink:href="#lg5" y1="219.706" y2="161.013"/><linearGradient id="lg6"><stop offset="0" stop-color="#cdbfba" stop-opacity="0"/><stop offset=".1541" stop-color="#cbbdb9" stop-opacity=".026"/><stop offset=".3138" stop-color="#c8bab6" stop-opacity=".105"/><stop offset=".4761" stop-color="#c1b5b1" stop-opacity=".236"/><stop offset=".6403" stop-color="#b9aeab" stop-opacity=".42"/><stop offset=".8058" stop-color="#aea4a2" stop-opacity=".657"/><stop offset=".9703" stop-color="#a09998" stop-opacity=".943"/><stop offset="1" stop-color="#9e9797"/></linearGradient><linearGradient id="SVGID_00000100380261603798538090000017117092328609432758_" gradientTransform="matrix(1 0 0 -1 0 514)" gradientUnits="userSpaceOnUse" x1="248.881" x2="257.198" xlink:href="#lg6" y1="215.695" y2="200.487"/><linearGradient id="SVGID_00000183223372444935978560000009862721066310746537_" gradientTransform="matrix(1 0 0 -1 0 514)" gradientUnits="userSpaceOnUse" x1="258.113" x2="255.974" xlink:href="#lg6" y1="222.14" y2="202.417"/><linearGradient id="SVGID_00000131325974817364075850000013152088736758289025_" gradientTransform="matrix(1 0 0 -1 0 514)" gradientUnits="userSpaceOnUse" x1="260.844" x2="268.21" xlink:href="#lg6" y1="171.49" y2="153.431"/><linearGradient id="SVGID_00000146487682063850635740000001945924675641752210_" gradientTransform="matrix(1 0 0 -1 0 514)" gradientUnits="userSpaceOnUse" x1="271.675" x2="257.655" xlink:href="#lg6" y1="161.296" y2="178.643"/><linearGradient id="SVGID_00000031903817002568086670000003221206631238986649_" gradientTransform="matrix(1 0 0 -1 0 514)" gradientUnits="userSpaceOnUse" x1="250.866" x2="254.193" xlink:href="#lg6" y1="145.853" y2="171.516"/><linearGradient id="SVGID_00000147197350775709378280000009498259193613204413_" gradientTransform="matrix(1 0 0 -1 0 514)" gradientUnits="userSpaceOnUse" x1="255.998" x2="255.998" xlink:href="#lg5" y1="213.812" y2="166.653"/><linearGradient id="SVGID_00000080177702859646468740000015556505582962809479_" gradientTransform="matrix(1 0 0 -1 0 514)" gradientUnits="userSpaceOnUse" x1="283.77" x2="299.518" xlink:href="#lg6" y1="187.75" y2="187.75"/><linearGradient id="SVGID_00000155125227658475777110000006385986545629449872_" gradientTransform="matrix(1 0 0 -1 0 514)" gradientUnits="userSpaceOnUse" x1="233.357" x2="274.941" xlink:href="#lg5" y1="109.396" y2="50.703"/><linearGradient id="SVGID_00000010999306721115860580000016913650440183486371_" gradientTransform="matrix(1 0 0 -1 0 514)" gradientUnits="userSpaceOnUse" x1="248.881" x2="257.198" xlink:href="#lg6" y1="105.385" y2="90.177"/><linearGradient id="SVGID_00000026852428124087376370000004652920970193814947_" gradientTransform="matrix(1 0 0 -1 0 514)" gradientUnits="userSpaceOnUse" x1="258.113" x2="255.974" xlink:href="#lg6" y1="111.83" y2="92.107"/><linearGradient id="SVGID_00000150081299926430713420000000089604521994866581_" gradientTransform="matrix(1 0 0 -1 0 514)" gradientUnits="userSpaceOnUse" x1="260.844" x2="268.21" xlink:href="#lg6" y1="61.18" y2="43.121"/><linearGradient id="SVGID_00000096041121446520632700000004387788321395069601_" gradientTransform="matrix(1 0 0 -1 0 514)" gradientUnits="userSpaceOnUse" x1="271.675" x2="257.655" xlink:href="#lg6" y1="50.986" y2="68.333"/><linearGradient id="SVGID_00000002346886615455573910000007028892519252571026_" gradientTransform="matrix(1 0 0 -1 0 514)" gradientUnits="userSpaceOnUse" x1="250.866" x2="254.193" xlink:href="#lg6" y1="35.543" y2="61.206"/><linearGradient id="SVGID_00000015335109211453357650000010173619128250422427_" gradientTransform="matrix(1 0 0 -1 0 514)" gradientUnits="userSpaceOnUse" x1="255.998" x2="255.998" xlink:href="#lg5" y1="103.502" y2="56.343"/><linearGradient id="SVGID_00000177462258723793640340000006099813982467349429_" gradientTransform="matrix(1 0 0 -1 0 514)" gradientUnits="userSpaceOnUse" x1="283.77" x2="299.518" xlink:href="#lg6" y1="77.44" y2="77.44"/><linearGradient id="SVGID_00000057148362516316462510000010323247102692299962_" gradientTransform="matrix(1 0 0 -1 0 514)" gradientUnits="userSpaceOnUse" x1="371.145" x2="371.145" xlink:href="#lg1" y1="269.416" y2="292.239"/><linearGradient id="SVGID_00000037674411044374693120000002689060899388841883_" gradientTransform="matrix(1 0 0 -1 0 514)" gradientUnits="userSpaceOnUse" x1="140.851" x2="140.851" xlink:href="#lg1" y1="269.416" y2="292.239"/><g><g><path d="m399.4 95.7c0 83.5-64.2 151.2-143.4 151.2s-143.4-67.7-143.4-151.2c0-29.7 8.2-57.5 22.2-80.9 25.5 12.9 70.2 21.4 121.2 21.4s95.7-8.5 121.2-21.3c14.1 23.4 22.2 51.1 22.2 80.8z" fill="url(#SVGID_1_)"/><path d="m399.4 95.7c0 83.5-64.2 151.2-143.4 151.2s-143.4-67.7-143.4-151.2c0-29.7 8.2-57.5 22.2-80.9 25.5 12.9 70.2 21.4 121.2 21.4s95.7-8.5 121.2-21.3c14.1 23.4 22.2 51.1 22.2 80.8z" fill="url(#SVGID_00000031921629726714598590000016840326046847393716_)"/><path d="m399.4 95.7c0 83.5-64.2 151.2-143.4 151.2s-143.4-67.7-143.4-151.2c0-29.7 8.2-57.5 22.2-80.9 25.5 12.9 70.2 21.4 121.2 21.4s95.7-8.5 121.2-21.3c14.1 23.4 22.2 51.1 22.2 80.8z" fill="url(#SVGID_00000134935880595064294480000005622863298266850488_)"/><path d="m381.7 16.1-24-.7c-11.7-.3-21.3 8.5-21.3 19.4v20c0 57.2-24.2 112.1-67.3 152.6-7.4 7-18.9 7-26.3 0-43.1-40.5-67.3-95.4-67.3-152.6v-20c0-11-9.7-19.8-21.3-19.4l-24 .7c-.9 0-1.8.1-2.6.2v480.2h110.6c2.8 0 5.4-.3 8-1 6.4-1.6 13.1-1.6 19.5 0 2.5.7 5.2 1 8 1h110.6v-480.1c-.8-.2-1.7-.3-2.6-.3z" fill="url(#SVGID_00000070835851951960670680000012182160223540019883_)"/><path d="m381.7 16.1-24-.7c-11.7-.3-21.3 8.5-21.3 19.4v20c0 57.2-24.2 112.1-67.3 152.6-7.4 7-18.9 7-26.3 0-43.1-40.5-67.3-95.4-67.3-152.6v-20c0-11-9.7-19.8-21.3-19.4l-24 .7c-.9 0-1.8.1-2.6.2v480.2h110.6c2.8 0 5.4-.3 8-1 6.4-1.6 13.1-1.6 19.5 0 2.5.7 5.2 1 8 1h110.6v-480.1c-.8-.2-1.7-.3-2.6-.3z" fill="url(#SVGID_00000147935994560799098190000011395769208607212469_)"/><g><g><path d="m154.4 20.7v21.3c0 60.9 24.2 119.3 67.3 162.4l17 17c5.7 5.7 8.9 13.5 8.9 21.6v238.6c0 16.8-13.6 30.5-30.5 30.5h-138.1c-24.5 0-44.3-19.8-44.3-44.3v-199.4c0-8 2.2-15.8 6.3-22.7l9.6-16.1c33.1-55.5 47.4-120.4 40.8-184.8l-2.2-21.3c-1.2-12 8-22.5 20-22.8l24-.7c11.6-.3 21.2 9 21.2 20.7z" fill="url(#SVGID_00000061452274249487290710000010792997743336680064_)"/><path d="m221.7 204.4c-43.1-43.1-67.3-101.5-67.3-162.4v-21.3c0-11.7-9.7-21-21.3-20.7l-24 .7c-.9 0-1.8.1-2.6.3v511h110.6c16.8 0 30.5-13.6 30.5-30.5v-238.5c0-8.1-3.2-15.8-8.9-21.6z" fill="url(#SVGID_00000116914815980903511460000015217083040051786147_)"/><path d="m34.6 365.6v102.1c0 24.5 19.8 44.3 44.3 44.3h138.2c16.8 0 30.5-13.6 30.5-30.5v-115.9z" fill="url(#SVGID_00000095312887901649746530000008726138026990720388_)"/><path d="m34.6 330.1h213v87.7h-213z" fill="url(#SVGID_00000177462700673352837350000013005794246124549039_)"/></g><g><path d="m357.6 20.7v21.3c0 60.9-24.2 119.3-67.3 162.4l-17 17c-5.7 5.7-8.9 13.5-8.9 21.6v238.6c0 16.8 13.6 30.5 30.5 30.5h138.1c24.5 0 44.3-19.8 44.3-44.3v-199.4c0-8-2.2-15.8-6.3-22.7l-9.6-16.1c-33.2-55.6-47.5-120.4-40.9-184.8l2.2-21.3c1.2-12-8-22.5-20-22.8l-24-.7c-11.5-.3-21.1 9-21.1 20.7z" fill="url(#SVGID_00000110428476305972266250000004850137388131694757_)"/><path d="m477.4 365.6v102.1c0 24.5-19.8 44.3-44.3 44.3h-138.2c-16.8 0-30.5-13.6-30.5-30.5v-115.9z" fill="url(#SVGID_00000093878320828448786510000008759478727307252152_)"/><path d="m247.6 438.8v42.7c0 16.8-13.7 30.5-30.5 30.5h-138.2c-24.5 0-44.3-19.8-44.3-44.3v-28.9z" fill="url(#SVGID_00000075870532551413774390000002643243472369122445_)"/><path d="m477.4 438.8v28.9c0 24.5-19.8 44.3-44.3 44.3h-138.2c-16.8 0-30.5-13.7-30.5-30.5v-42.7z" fill="url(#SVGID_00000024687801751836629850000010402262533979468706_)"/><path d="m461.5 229.7c-33.2-55.6-47.5-120.4-40.9-184.8l2.2-21.3c1.2-12-8-22.5-20-22.8l-24-.7c-11.7-.4-21.3 9-21.3 20.7v21.2c0 36.9-8.9 72.8-25.4 105v365h100.9c24.5 0 44.3-19.8 44.3-44.3v-199.3c0-8-2.2-15.8-6.3-22.7z" fill="url(#SVGID_00000093862282471244923790000013627734430923736223_)"/><path d="m264.4 330.1h212.9v87.7h-212.9z" fill="url(#SVGID_00000111179241101063631320000005056682593504706733_)"/></g></g></g><g><path d="m36.9 296.8h438.2c5.7 0 10.3 4.6 10.3 10.3v38.8c0 5.7-4.6 10.3-10.3 10.3h-438.2c-5.7 0-10.3-4.6-10.3-10.3v-38.8c0-5.7 4.6-10.3 10.3-10.3z" fill="url(#SVGID_00000005236859544303278850000015802245338019024044_)"/><path d="m485.4 307.1v38.8c0 5.7-4.6 10.3-10.3 10.3h-112v-59.3h112c5.7-.1 10.3 4.5 10.3 10.2z" fill="url(#SVGID_00000018200963179755894280000003799565245431478413_)"/><path d="m288 296.8h88.6v59.3h-88.6z" fill="url(#SVGID_00000155146070788744506320000006328588080356743863_)"/></g><g><path d="m36.9 406.9h438.2c5.7 0 10.3 4.6 10.3 10.3v38.8c0 5.7-4.6 10.3-10.3 10.3h-438.2c-5.7 0-10.3-4.6-10.3-10.3v-38.8c0-5.7 4.6-10.3 10.3-10.3z" fill="url(#SVGID_00000026163624803862276730000015775727429639915196_)"/><path d="m288 406.9h88.6v59.3h-88.6z" fill="url(#SVGID_00000055697312224454546080000002926524953947172272_)"/><path d="m485.4 417.1v38.9c0 5.7-4.6 10.3-10.3 10.3h-112v-59.4h112c5.7 0 10.3 4.6 10.3 10.2z" fill="url(#SVGID_00000177454229884067207930000012502186106240018087_)"/></g><g><ellipse cx="256" cy="326.2" fill="url(#SVGID_00000098902184187612524410000001997505685906917514_)" rx="39.4" ry="36.4"/><path d="m292 311.4h-72c6.2-12.7 19.9-21.5 36-21.5s29.8 8.8 36 21.5z" fill="url(#SVGID_00000100380261603798538090000017117092328609432758_)"/><path d="m292 311.4h-72c6.2-12.7 19.9-21.5 36-21.5s29.8 8.8 36 21.5z" fill="url(#SVGID_00000183223372444935978560000009862721066310746537_)"/><path d="m216.6 328.2c1.1 19.2 18.3 34.4 39.4 34.4s38.2-15.2 39.4-34.4z" fill="url(#SVGID_00000131325974817364075850000013152088736758289025_)"/><path d="m216.6 328.2c1.1 19.2 18.3 34.4 39.4 34.4s38.2-15.2 39.4-34.4z" fill="url(#SVGID_00000146487682063850635740000001945924675641752210_)"/><path d="m216.6 328.2c1.1 19.2 18.3 34.4 39.4 34.4s38.2-15.2 39.4-34.4z" fill="url(#SVGID_00000031903817002568086670000003221206631238986649_)"/><g><path d="m299.7 298.2v56.1c0 4.6-3.7 8.3-8.3 8.3h-.5c-5.4 0-10.5-2.7-13.8-7-4.9-6.3-12.5-10.3-21.1-10.3s-16.2 4-21.1 10.3c-3.3 4.3-8.4 7-13.8 7h-.5c-4.6 0-8.3-3.7-8.3-8.3v-56.1c0-4.6 3.7-8.3 8.3-8.3h.5c5.4 0 10.5 2.7 13.8 7 4.9 6.3 12.5 10.3 21.1 10.3s16.2-4 21.1-10.3c3.3-4.3 8.4-7 13.8-7h.5c4.6 0 8.3 3.7 8.3 8.3z" fill="url(#SVGID_00000147197350775709378280000009498259193613204413_)"/><path d="m291.4 289.9h-.5c-5.4 0-10.5 2.7-13.8 7-4.9 6.3-12.5 10.3-21.1 10.3-.5 0-1.1 0-1.6 0v38.2h1.6c8.6 0 16.2 4 21.1 10.3 3.3 4.3 8.4 7 13.8 7h.5c4.6 0 8.3-3.7 8.3-8.3v-56.1c0-4.7-3.7-8.4-8.3-8.4z" fill="url(#SVGID_00000080177702859646468740000015556505582962809479_)"/></g></g><g><ellipse cx="256" cy="436.6" fill="url(#SVGID_00000155125227658475777110000006385986545629449872_)" rx="39.4" ry="36.4"/><path d="m292 421.7h-72c6.2-12.7 19.9-21.5 36-21.5s29.8 8.8 36 21.5z" fill="url(#SVGID_00000010999306721115860580000016913650440183486371_)"/><path d="m292 421.7h-72c6.2-12.7 19.9-21.5 36-21.5s29.8 8.8 36 21.5z" fill="url(#SVGID_00000026852428124087376370000004652920970193814947_)"/><path d="m216.6 438.5c1.1 19.2 18.3 34.4 39.4 34.4s38.2-15.2 39.4-34.4z" fill="url(#SVGID_00000150081299926430713420000000089604521994866581_)"/><path d="m216.6 438.5c1.1 19.2 18.3 34.4 39.4 34.4s38.2-15.2 39.4-34.4z" fill="url(#SVGID_00000096041121446520632700000004387788321395069601_)"/><path d="m216.6 438.5c1.1 19.2 18.3 34.4 39.4 34.4s38.2-15.2 39.4-34.4z" fill="url(#SVGID_00000002346886615455573910000007028892519252571026_)"/><g><path d="m299.7 408.5v56.1c0 4.6-3.7 8.3-8.3 8.3h-.5c-5.4 0-10.5-2.7-13.8-7-4.9-6.3-12.5-10.3-21.1-10.3s-16.2 4-21.1 10.3c-3.3 4.3-8.4 7-13.8 7h-.5c-4.6 0-8.3-3.7-8.3-8.3v-56.1c0-4.6 3.7-8.3 8.3-8.3h.5c5.4 0 10.5 2.7 13.8 7 4.9 6.3 12.5 10.3 21.1 10.3s16.2-4 21.1-10.3c3.3-4.3 8.4-7 13.8-7h.5c4.6 0 8.3 3.7 8.3 8.3z" fill="url(#SVGID_00000015335109211453357650000010173619128250422427_)"/><path d="m291.4 400.2h-.5c-5.4 0-10.5 2.7-13.8 7-4.9 6.3-12.5 10.3-21.1 10.3-.5 0-1.1 0-1.6 0v38.2h1.6c8.6 0 16.2 4 21.1 10.3 3.3 4.3 8.4 7 13.8 7h.5c4.6 0 8.3-3.7 8.3-8.3v-56.1c0-4.7-3.7-8.4-8.3-8.4z" fill="url(#SVGID_00000177462258723793640340000006099813982467349429_)"/></g></g><g><path d="m339.5 221.1h63.3c7.1 0 12.9 5.8 12.9 12.9 0 7.1-5.8 12.9-12.9 12.9h-63.3c-7.1 0-12.9-5.8-12.9-12.9 0-7.2 5.8-12.9 12.9-12.9z" fill="url(#SVGID_00000057148362516316462510000010323247102692299962_)"/><path d="m109.2 221.1h63.3c7.1 0 12.9 5.8 12.9 12.9 0 7.1-5.8 12.9-12.9 12.9h-63.3c-7.1 0-12.9-5.8-12.9-12.9 0-7.2 5.8-12.9 12.9-12.9z" fill="url(#SVGID_00000037674411044374693120000002689060899388841883_)"/></g></g></svg>