<svg width="512" height="512" viewBox="0 0 512 512" fill="none" xmlns="http://www.w3.org/2000/svg">
<g clip-path="url(#clip0_1125_1099)">
<path d="M405.448 408.194C401.092 404.865 394.867 405.7 391.539 410.053C388.212 414.406 389.044 420.633 393.398 423.961L410.353 436.92C412.146 438.29 414.265 438.959 416.373 438.959C419.087 438.959 421.782 437.85 423.731 435.698L456.14 399.914C459.818 395.852 459.508 389.577 455.446 385.899C451.385 382.221 445.11 382.532 441.432 386.593L415.151 415.612L405.448 408.194Z" fill="#444971"/>
<path d="M510.793 355.232C510.68 350.173 506.777 346.012 501.738 345.571C478.135 343.508 449.09 327.654 427.74 305.182C425.866 303.211 423.268 302.095 420.549 302.094C420.548 302.094 420.547 302.094 420.546 302.094C417.83 302.094 415.231 303.208 413.358 305.177C403.775 315.25 392.65 323.988 381.171 330.756C361.028 308.269 336.235 291.702 307.177 281.273C306.924 281.171 306.668 281.08 306.406 280.998C304.143 280.197 301.853 279.432 299.539 278.703C324.113 254.195 340.642 221.987 340.642 193.093V177.505C352.259 172.447 360.406 160.853 360.406 147.386C360.406 133.397 351.601 121.433 339.245 116.725C334.146 67.214 299.264 25.5942 251.348 11.8248C249.933 5.08094 243.941 0 236.783 0H200.83C193.926 0 188.123 4.7307 186.448 11.1173C162.879 17.4028 141.351 30.819 125.21 49.4719C108.827 68.4046 98.6396 92.0482 96.052 116.73C83.6904 121.44 74.8829 133.402 74.8829 147.387C74.8829 160.859 83.0416 172.456 94.6738 177.511V193.094C94.6738 221.961 111.206 254.181 135.78 278.706C133.532 279.413 131.307 280.152 129.107 280.928C128.675 281.051 128.254 281.203 127.844 281.382C95.3207 293.115 68.1678 312.536 46.9035 339.355C26.4527 365.15 11.9144 397.004 3.6932 434.04C0.767274 447.275 -1.43337 463.908 7.59147 475.146C16.407 486.122 32.1806 487.529 44.939 487.529H109.842C115.322 487.529 119.764 483.086 119.764 477.607C119.764 472.128 115.322 467.685 109.842 467.685H44.939C33.0696 467.685 25.7096 466.015 23.0635 462.72C20.2606 459.229 20.2626 451.021 23.0664 438.331C33.3781 391.885 58.5913 335.048 119.339 306.351C117.471 339.87 135.633 361.779 147.177 375.685C148.944 377.814 151.52 379.108 154.283 379.256C157.044 379.408 159.745 378.39 161.728 376.462L217.645 322.082L273.589 376.464C275.446 378.267 277.928 379.27 280.505 379.27C280.682 379.27 280.86 379.266 281.039 379.256C283.803 379.107 286.379 377.81 288.145 375.678C299.673 361.761 317.808 339.838 315.957 306.39C333.581 314.75 349.152 325.931 362.543 339.859C354.547 342.954 346.685 344.931 339.354 345.572C334.317 346.012 330.417 350.17 330.299 355.225C329.469 390.698 335.381 416.113 351.377 445.859C351.512 446.111 356.917 455.801 365.34 467.687H199.667C194.187 467.687 189.745 472.13 189.745 477.609C189.745 483.088 194.187 487.531 199.667 487.531H381.097C393.059 500.751 407.167 512.002 420.545 512.002C452.823 512.002 489.359 446.521 489.71 445.866C505.68 416.115 511.591 390.704 510.793 355.232ZM318.993 114.583H264.366C254.045 87.6221 252.093 65.3904 251.742 32.7547C287.529 45.4119 313.545 76.989 318.993 114.583ZM205.786 19.8435H231.826C231.889 58.2487 232.862 84.2596 243.259 114.583H194.373C204.752 84.2586 205.724 58.2447 205.786 19.8435ZM185.88 31.9719C185.552 65.0372 183.655 87.4058 173.271 114.584H116.318C121.978 76.5008 149.354 44.0675 185.88 31.9719ZM107.715 134.426H174.09C174.674 134.9 175.24 134.961 175.714 134.426H327.601C334.748 134.426 340.562 140.239 340.562 147.387C340.562 154.549 334.749 160.376 327.601 160.376H107.715C100.553 160.376 94.7264 154.549 94.7264 147.387C94.7264 140.24 100.552 134.426 107.715 134.426ZM114.517 193.094V180.219H320.798V193.094C320.798 230.922 284.151 277.706 242.372 293.215C224.091 300.008 211.113 300.003 192.789 293.193C151.093 277.621 114.517 230.845 114.517 193.094ZM155.695 354.649C145.426 341.242 135.538 323.641 140.29 298.092C144.667 296.679 149.189 295.39 153.878 294.25C163.883 301.59 174.674 307.611 185.861 311.789C189.461 313.126 192.926 314.228 196.315 315.145L155.695 354.649ZM279.612 354.643L238.966 315.133C242.312 314.225 245.731 313.137 249.281 311.817C260.523 307.644 271.367 301.612 281.418 294.248C286.05 295.375 290.579 296.652 294.998 298.083C299.762 323.597 289.878 341.216 279.612 354.643ZM472.223 436.486C460.489 458.385 433.011 492.156 420.545 492.156C408.08 492.156 380.601 458.385 368.861 436.472C355.749 412.093 350.369 391.762 350.077 364.08C360.781 362.043 371.924 358.049 382.881 352.471C383.266 352.303 383.641 352.106 384.009 351.885C396.805 345.235 409.318 336.433 420.541 325.973C441.673 345.687 467.399 359.591 491.006 364.081C490.693 391.767 485.314 412.102 472.223 436.486Z" fill="#444971"/>
<path d="M154.754 467.685C149.274 467.685 144.832 472.128 144.832 477.607C144.832 483.086 149.274 487.529 154.754 487.529H154.81C160.29 487.529 164.703 483.086 164.703 477.607C164.703 472.128 160.234 467.685 154.754 467.685Z" fill="#444971"/>
</g>
<defs>
<clipPath id="clip0_1125_1099">
<rect width="512" height="512" fill="white"/>
</clipPath>
</defs>
</svg>
