<svg id="Layer_1" enable-background="new 0 0 512 512" viewBox="0 0 512 512" xmlns="http://www.w3.org/2000/svg" xmlns:xlink="http://www.w3.org/1999/xlink"><linearGradient id="SVGID_1_" gradientUnits="userSpaceOnUse" x1="20.218" x2="239.614" y1="81.981" y2="412.816"><stop offset="0" stop-color="#60b7ff"/><stop offset="1" stop-color="#0268b4"/></linearGradient><linearGradient id="lg1"><stop offset="0" stop-color="#024c67" stop-opacity="0"/><stop offset=".2656" stop-color="#034664" stop-opacity=".266"/><stop offset=".6092" stop-color="#06365b" stop-opacity=".609"/><stop offset=".9942" stop-color="#0b1b4c" stop-opacity=".994"/><stop offset="1" stop-color="#0b1b4c"/></linearGradient><linearGradient id="SVGID_00000098213547782540616550000014713209540307287991_" gradientUnits="userSpaceOnUse" x1="293.649" x2="345.977" xlink:href="#lg1" y1="302.898" y2="302.898"/><linearGradient id="SVGID_00000052084613977186205070000007515655521597539220_" gradientUnits="userSpaceOnUse" x1="166.721" x2="166.721" xlink:href="#lg1" y1="387.195" y2="447.854"/><linearGradient id="SVGID_00000173866805292388342050000008713919036279513478_" gradientUnits="userSpaceOnUse" x1="255.535" x2="179.971" xlink:href="#lg1" y1="306.324" y2="197.967"/><linearGradient id="lg2"><stop offset="0" stop-color="#f5fbff"/><stop offset="1" stop-color="#dbd5ef"/></linearGradient><linearGradient id="SVGID_00000000188435269152519940000005111681450229826723_" gradientUnits="userSpaceOnUse" x1="313.345" x2="484.563" xlink:href="#lg2" y1="276.85" y2="435.765"/><linearGradient id="lg3"><stop offset="0" stop-color="#dbd5ef" stop-opacity="0"/><stop offset=".2853" stop-color="#d9d2ee" stop-opacity=".285"/><stop offset=".4739" stop-color="#d4c9e9" stop-opacity=".474"/><stop offset=".6346" stop-color="#cbbae2" stop-opacity=".635"/><stop offset=".7795" stop-color="#bfa5d7" stop-opacity=".78"/><stop offset=".9126" stop-color="#af8aca" stop-opacity=".913"/><stop offset="1" stop-color="#a274bf"/></linearGradient><linearGradient id="SVGID_00000174564308966193836570000005521623557217816464_" gradientUnits="userSpaceOnUse" x1="445.9" x2="505.57" xlink:href="#lg3" y1="332.394" y2="332.394"/><linearGradient id="SVGID_00000183959140878564297200000003576641477873536164_" gradientUnits="userSpaceOnUse" x1="443.06" x2="483.558" xlink:href="#lg3" y1="328.696" y2="301.014"/><linearGradient id="SVGID_00000142164171253990055680000004550433347588747650_" gradientUnits="userSpaceOnUse" x1="409.813" x2="409.813" xlink:href="#lg3" y1="390.15" y2="440.829"/><linearGradient id="SVGID_00000097492863815351562980000003667649203611317666_" gradientUnits="userSpaceOnUse" x1="364.971" x2="364.971" xlink:href="#lg2" y1="380.015" y2="362.098"/><linearGradient id="lg4"><stop offset="0" stop-color="#b3dafe"/><stop offset="1" stop-color="#01d0fb"/></linearGradient><linearGradient id="SVGID_00000018927971116039327890000016069997348728536752_" gradientUnits="userSpaceOnUse" x1="361.91" x2="458.551" xlink:href="#lg4" y1="273.161" y2="369.802"/><linearGradient id="lg5"><stop offset="0" stop-color="#08a9f1" stop-opacity="0"/><stop offset="1" stop-color="#08a9f1"/></linearGradient><linearGradient id="SVGID_00000106845312376525266690000012082930292431729027_" gradientUnits="userSpaceOnUse" x1="390.023" x2="337.16" xlink:href="#lg5" y1="297.338" y2="297.338"/><linearGradient id="SVGID_00000134969037808453684850000005607037755642600088_" gradientUnits="userSpaceOnUse" x1="406.945" x2="406.945" xlink:href="#lg5" y1="287.596" y2="243.009"/><linearGradient id="SVGID_00000046313499266877634550000002772086901973984394_" gradientUnits="userSpaceOnUse" x1="500.455" x2="464.058" xlink:href="#lg3" y1="364.198" y2="346.256"/><linearGradient id="lg6"><stop offset="0" stop-color="#5a5a5a"/><stop offset="1" stop-color="#444"/></linearGradient><linearGradient id="SVGID_00000120559826346206718780000004408091009469590700_" gradientUnits="userSpaceOnUse" x1="459.064" x2="468.351" xlink:href="#lg6" y1="331.398" y2="337.899"/><linearGradient id="lg7"><stop offset="0" stop-color="#433f43" stop-opacity="0"/><stop offset=".3444" stop-color="#403c40" stop-opacity=".344"/><stop offset=".6223" stop-color="#363336" stop-opacity=".622"/><stop offset=".8763" stop-color="#252425" stop-opacity=".876"/><stop offset="1" stop-color="#1a1a1a"/></linearGradient><linearGradient id="SVGID_00000005250089829803778250000018316831506260240793_" gradientUnits="userSpaceOnUse" x1="468.196" x2="468.196" xlink:href="#lg7" y1="341.69" y2="354.669"/><linearGradient id="SVGID_00000137108830999717412210000010571943312779573891_" gradientUnits="userSpaceOnUse" x1="467.322" x2="478.705" xlink:href="#lg7" y1="337.079" y2="337.079"/><linearGradient id="SVGID_00000108988702070564792040000015967219741018993795_" gradientUnits="userSpaceOnUse" x1="385.475" x2="434.77" xlink:href="#lg6" y1="436.823" y2="486.117"/><linearGradient id="SVGID_00000086686865579705762970000008119621790659190955_" gradientUnits="userSpaceOnUse" x1="406.427" x2="406.427" xlink:href="#lg7" y1="458.461" y2="522.25"/><linearGradient id="SVGID_00000151537699996793851850000009836822233281992124_" gradientTransform="matrix(.707 -.707 .707 .707 2753.955 -2197.189)" gradientUnits="userSpaceOnUse" x1="-3537.296" x2="-3537.296" xlink:href="#lg7" y1="218.076" y2="285.221"/><linearGradient id="SVGID_00000012462950703502071960000008081748718789189774_" gradientUnits="userSpaceOnUse" x1="419.455" x2="378.714" xlink:href="#lg7" y1="470.803" y2="430.062"/><linearGradient id="SVGID_00000018201347044392740230000011242334735630209978_" gradientUnits="userSpaceOnUse" x1="396.466" x2="419.901" xlink:href="#lg2" y1="447.814" y2="471.249"/><linearGradient id="SVGID_00000165236490421729509290000014330207740674781856_" gradientUnits="userSpaceOnUse" x1="406.427" x2="406.427" xlink:href="#lg3" y1="458.101" y2="488.427"/><linearGradient id="SVGID_00000182495453957445758620000004645369563246233506_" gradientTransform="matrix(.707 -.707 .707 .707 2753.955 -2197.189)" gradientUnits="userSpaceOnUse" x1="-3537.296" x2="-3537.296" xlink:href="#lg3" y1="217.716" y2="249.637"/><linearGradient id="SVGID_00000149378959890821858910000008552037413614390148_" gradientUnits="userSpaceOnUse" x1="75.405" x2="124.699" xlink:href="#lg6" y1="436.823" y2="486.117"/><linearGradient id="SVGID_00000008871848568662544080000001362553203984482490_" gradientUnits="userSpaceOnUse" x1="96.357" x2="96.357" xlink:href="#lg7" y1="458.461" y2="522.25"/><linearGradient id="SVGID_00000039116634755265096190000013729943571213570725_" gradientTransform="matrix(.707 -.707 .707 .707 2753.955 -2197.189)" gradientUnits="userSpaceOnUse" x1="-3756.549" x2="-3756.549" xlink:href="#lg7" y1="-1.177" y2="65.968"/><linearGradient id="SVGID_00000171696175402154352720000012813201552426193057_" gradientUnits="userSpaceOnUse" x1="109.384" x2="68.643" xlink:href="#lg7" y1="470.803" y2="430.062"/><linearGradient id="SVGID_00000021826651768191781540000015116988647428910757_" gradientUnits="userSpaceOnUse" x1="86.396" x2="109.831" xlink:href="#lg2" y1="447.814" y2="471.249"/><linearGradient id="SVGID_00000124150340315430670760000012081857193787332483_" gradientUnits="userSpaceOnUse" x1="96.357" x2="96.357" xlink:href="#lg3" y1="458.101" y2="488.427"/><linearGradient id="SVGID_00000025445219481746858500000017182891341393654204_" gradientTransform="matrix(.707 -.707 .707 .707 2753.955 -2197.189)" gradientUnits="userSpaceOnUse" x1="-3756.549" x2="-3756.549" xlink:href="#lg3" y1="-1.537" y2="30.384"/><linearGradient id="lg8"><stop offset="0" stop-color="#fef0ae"/><stop offset="1" stop-color="#fac600"/></linearGradient><linearGradient id="SVGID_00000021086499389414718550000011285548655930598328_" gradientUnits="userSpaceOnUse" x1="484.387" x2="506.855" xlink:href="#lg8" y1="389.613" y2="404.395"/><linearGradient id="lg9"><stop offset="0" stop-color="#fe9738" stop-opacity="0"/><stop offset="1" stop-color="#fe9738"/></linearGradient><linearGradient id="SVGID_00000122695190073092823860000014555340691790811835_" gradientUnits="userSpaceOnUse" x1="497.331" x2="503.637" xlink:href="#lg9" y1="397.115" y2="415.583"/><linearGradient id="SVGID_00000016044128955138480660000017145021138864735908_" gradientUnits="userSpaceOnUse" x1="495.831" x2="510.92" xlink:href="#lg9" y1="396.888" y2="402.294"/><linearGradient id="SVGID_00000023280742091849438440000006320224492007604156_" gradientUnits="userSpaceOnUse" x1="155.806" x2="176.15" xlink:href="#lg6" y1="47.154" y2="47.154"/><linearGradient id="SVGID_00000036939707195839051990000014816990063179407789_" gradientTransform="matrix(-.707 .707 .707 .707 -908.191 338.332)" gradientUnits="userSpaceOnUse" x1="-1006.929" x2="-1006.929" xlink:href="#lg8" y1="629.302" y2="656.809"/><linearGradient id="SVGID_00000075137520842464226110000009259578982113313686_" gradientTransform="matrix(-.707 .707 .707 .707 -908.191 338.332)" gradientUnits="userSpaceOnUse" x1="-1040.255" x2="-974.154" xlink:href="#lg9" y1="622.892" y2="661.516"/><linearGradient id="SVGID_00000159467410953975107440000018080198895434328503_" gradientTransform="matrix(-.707 .707 .707 .707 -908.191 338.332)" gradientUnits="userSpaceOnUse" x1="-1032.867" x2="-981.421" xlink:href="#lg9" y1="627.209" y2="657.27"/><linearGradient id="SVGID_00000145029591015405922940000012862217389304589201_" gradientTransform="matrix(-.707 .707 .707 .707 -908.191 338.332)" gradientUnits="userSpaceOnUse" x1="-1006.929" x2="-1006.929" xlink:href="#lg9" y1="653.15" y2="665.344"/><linearGradient id="SVGID_00000137102065285875490290000016142600792724187068_" gradientTransform="matrix(-.707 .707 .707 .707 -908.191 338.332)" gradientUnits="userSpaceOnUse" x1="-1005.633" x2="-992.836" xlink:href="#lg9" y1="642.365" y2="642.365"/><linearGradient id="SVGID_00000088097236481222229910000011331307108832433552_" gradientUnits="userSpaceOnUse" x1="117.055" x2="240.741" xlink:href="#lg2" y1="124.053" y2="247.739"/><linearGradient id="SVGID_00000036253091003662246020000010337447355481606587_" gradientUnits="userSpaceOnUse" x1="231.098" x2="201.046" xlink:href="#lg3" y1="173.086" y2="145.873"/><linearGradient id="SVGID_00000090273724349989645550000002742793949152501676_" gradientUnits="userSpaceOnUse" x1="172.096" x2="123.35" xlink:href="#lg3" y1="287.22" y2="253.381"/><linearGradient id="SVGID_00000076564910603965981010000014082136946747203229_" gradientUnits="userSpaceOnUse" x1="93.017" x2="225.974" xlink:href="#lg4" y1="100.014" y2="232.972"/><linearGradient id="SVGID_00000013176322212871813550000001489091915477895308_" gradientUnits="userSpaceOnUse" x1="244.535" x2="77.06" xlink:href="#lg4" y1="251.533" y2="84.058"/><linearGradient id="SVGID_00000142176728556427351970000009559918934383139251_" gradientUnits="userSpaceOnUse" x1="166.721" x2="166.721" xlink:href="#lg5" y1="263.878" y2="293.358"/><linearGradient id="SVGID_00000119111838415325144300000006431718180126436008_" gradientUnits="userSpaceOnUse" x1="225.847" x2="255.189" xlink:href="#lg5" y1="225.242" y2="250.799"/><linearGradient id="lg10"><stop offset="0" stop-color="#fea613"/><stop offset="1" stop-color="#c4573a"/></linearGradient><linearGradient id="SVGID_00000067915755132668140260000013038781115338856870_" gradientUnits="userSpaceOnUse" x1="64.076" x2="64.127" xlink:href="#lg10" y1="102.295" y2="102.336"/><linearGradient id="SVGID_00000134220433545026766400000017864233380920138405_" gradientUnits="userSpaceOnUse" x1="62.803" x2="63.772" xlink:href="#lg10" y1="101.883" y2="102.659"/><linearGradient id="SVGID_00000177466422136599160970000013368390514134915209_" gradientUnits="userSpaceOnUse" x1="180.199" x2="130.507" y1="270.125" y2="241.02"><stop offset="0" stop-color="#bbec6c" stop-opacity="0"/><stop offset=".1974" stop-color="#b5e665" stop-opacity=".197"/><stop offset=".4799" stop-color="#a5d552" stop-opacity=".48"/><stop offset=".8118" stop-color="#8abb33" stop-opacity=".812"/><stop offset="1" stop-color="#78a91f"/></linearGradient><linearGradient id="SVGID_00000058591100085940898780000003444011667269016728_" gradientUnits="userSpaceOnUse" x1="-147.272" x2="324.096" xlink:href="#lg3" y1="-86.551" y2="178.948"/><linearGradient id="SVGID_00000005260876779787599950000013155268996931467687_" gradientUnits="userSpaceOnUse" x1="-218.606" x2="252.763" xlink:href="#lg3" y1="40.095" y2="305.594"/><linearGradient id="SVGID_00000036959795055532479620000014553087232459327922_" gradientUnits="userSpaceOnUse" x1="-162.85" x2="308.519" xlink:href="#lg3" y1="-58.895" y2="206.604"/><linearGradient id="SVGID_00000021810239170468282240000001662586734106396336_" gradientUnits="userSpaceOnUse" x1="-203.029" x2="268.34" xlink:href="#lg3" y1="12.438" y2="277.938"/><linearGradient id="SVGID_00000037654395566364642690000013242199006327492752_" gradientUnits="userSpaceOnUse" x1="-143.514" x2="327.855" xlink:href="#lg3" y1="-93.225" y2="172.275"/><linearGradient id="SVGID_00000039120808588422965000000015610656037040497331_" gradientUnits="userSpaceOnUse" x1="-222.365" x2="249.004" xlink:href="#lg3" y1="46.768" y2="312.268"/><linearGradient id="SVGID_00000025405725366327418870000008772323123113427638_" gradientUnits="userSpaceOnUse" x1="-193.954" x2="277.414" xlink:href="#lg3" y1="-3.673" y2="261.827"/><linearGradient id="SVGID_00000056414670389944618060000012715889910886204340_" gradientUnits="userSpaceOnUse" x1="-171.924" x2="299.444" xlink:href="#lg3" y1="-42.784" y2="222.716"/><linearGradient id="SVGID_00000124130318458860664030000018428266944504363681_" gradientUnits="userSpaceOnUse" x1="81.261" x2="112.496" y1="239.488" y2="268.594"><stop offset="0" stop-color="#bbec6c"/><stop offset=".1974" stop-color="#b5e665"/><stop offset=".4799" stop-color="#a5d552"/><stop offset=".8118" stop-color="#8abb33"/><stop offset="1" stop-color="#78a91f"/></linearGradient><linearGradient id="SVGID_00000153697672051136922600000015004752956019025800_" gradientUnits="userSpaceOnUse" x1="195.588" x2="206.77" y1="132.235" y2="143.417"><stop offset="0" stop-color="#fb2b3a"/><stop offset="1" stop-color="#c41926"/></linearGradient><linearGradient id="SVGID_00000169554631644593472990000001291020329685945495_" gradientUnits="userSpaceOnUse" x1="185.256" x2="172.462" y1="153.325" y2="166.119"><stop offset="0" stop-color="#a72b2b" stop-opacity="0"/><stop offset=".2576" stop-color="#a32c2b" stop-opacity=".258"/><stop offset=".5245" stop-color="#972d2a" stop-opacity=".525"/><stop offset=".7947" stop-color="#823028" stop-opacity=".795"/><stop offset="1" stop-color="#6d3326"/></linearGradient><linearGradient id="SVGID_00000000910636937990076650000013487992300134283960_" gradientUnits="userSpaceOnUse" x1="155.543" x2="175.707" xlink:href="#lg8" y1="162.541" y2="182.704"/><linearGradient id="SVGID_00000000910608711195591870000018242752197255932815_" gradientUnits="userSpaceOnUse" x1="166.721" x2="166.721" xlink:href="#lg9" y1="173.95" y2="195.445"/><linearGradient id="SVGID_00000108297749843816680920000004495633695659443346_" gradientTransform="matrix(.707 -.707 .707 .707 2753.955 -2197.189)" gradientUnits="userSpaceOnUse" x1="-3505.936" x2="-3505.936" xlink:href="#lg9" y1="-152.735" y2="-130.108"/><linearGradient id="SVGID_00000158003667375401046170000001882391858023761840_" gradientTransform="matrix(0 1 1 0 549.406 -549.406)" gradientUnits="userSpaceOnUse" x1="571.644" x2="571.644" xlink:href="#lg8" y1="-402.698" y2="-360.558"/><linearGradient id="SVGID_00000034048294128723222760000001438017650877762980_" gradientTransform="matrix(0 1 1 0 549.406 -549.406)" gradientUnits="userSpaceOnUse" x1="520.59" x2="621.853" xlink:href="#lg9" y1="-412.517" y2="-353.348"/><linearGradient id="SVGID_00000131365068057872460280000001501667688066413494_" gradientTransform="matrix(0 1 1 0 549.406 -549.406)" gradientUnits="userSpaceOnUse" x1="531.909" x2="610.721" xlink:href="#lg9" y1="-405.903" y2="-359.852"/><linearGradient id="SVGID_00000141413116909255319570000010985259669025767093_" gradientTransform="matrix(0 1 1 0 549.406 -549.406)" gradientUnits="userSpaceOnUse" x1="571.644" x2="571.644" xlink:href="#lg9" y1="-366.164" y2="-347.483"/><linearGradient id="SVGID_00000157297884034187904410000000882426416644852106_" gradientTransform="matrix(0 1 1 0 549.406 -549.406)" gradientUnits="userSpaceOnUse" x1="573.63" x2="593.233" xlink:href="#lg9" y1="-382.685" y2="-382.685"/><g><g><g><path d="m310.374 164.974h-287.307c-12.74 0-23.067 10.327-23.067 23.066v229.714c0 12.739 10.327 23.067 23.067 23.067h287.308c12.74 0 23.067-10.327 23.067-23.067v-229.714c-.001-12.739-10.328-23.066-23.068-23.066z" fill="url(#SVGID_1_)"/><path d="m310.374 164.974h-136.68v275.848h136.681c12.74 0 23.067-10.327 23.067-23.067v-229.715c-.001-12.739-10.328-23.066-23.068-23.066z" fill="url(#SVGID_00000098213547782540616550000014713209540307287991_)"/><path d="m0 270.898v146.857c0 12.739 10.327 23.067 23.067 23.067h194.73 92.578c12.74 0 23.067-10.327 23.067-23.067v-146.857z" fill="url(#SVGID_00000052084613977186205070000007515655521597539220_)"/><path d="m333.441 417.755v-229.714c0-12.74-10.327-23.067-23.067-23.067h-101.411l-128.111 128.11 147.737 147.737h81.786c12.739.001 23.066-10.327 23.066-23.066z" fill="url(#SVGID_00000173866805292388342050000008713919036279513478_)"/></g><g><g><path d="m491.068 336.561c-5.132-4.119-8.421-10.054-9.404-16.561-1.29-8.538-4.294-16.763-8.869-24.165l-25.785-41.724c-11.58-18.739-32.038-30.145-54.066-30.145h-53.121c-11.555 0-20.922 9.367-20.922 20.922v180.164c0 8.709 7.06 15.769 15.769 15.769h26.797 75.72 24.762-25.25 2.806 21.956 20.611c10.3 0 18.649-8.35 18.649-18.65v-65.481c.002-7.826-3.549-15.23-9.653-20.129z" fill="url(#SVGID_00000000188435269152519940000005111681450229826723_)"/><path d="m491.068 336.561c-5.132-4.119-8.421-10.054-9.404-16.561-1.29-8.538-4.294-16.763-8.868-24.165l-25.785-41.724c-11.58-18.739-32.038-30.145-54.066-30.145h-5.486v216.856h49.241.488 2.318 21.955.489 20.122c10.3 0 18.65-8.35 18.65-18.65v-65.482c.001-7.826-3.55-15.23-9.654-20.129z" fill="url(#SVGID_00000174564308966193836570000005521623557217816464_)"/><path d="m491.068 336.561c-5.132-4.119-8.421-10.054-9.404-16.561-1.29-8.538-4.294-16.763-8.868-24.165l-25.785-41.724c-11.58-18.739-32.038-30.145-54.066-30.145h-5.486v216.856h49.241.488 2.318 21.955.489 20.122c10.3 0 18.65-8.35 18.65-18.65v-65.482c.001-7.826-3.55-15.23-9.654-20.129z" fill="url(#SVGID_00000183959140878564297200000003576641477873536164_)"/><path d="m482.074 440.822c10.3 0 18.65-8.35 18.65-18.65v-65.482c0-1.67-.171-3.319-.485-4.931h-181.336v73.293c0 8.709 7.06 15.769 15.769 15.769h147.402z" fill="url(#SVGID_00000142164171253990055680000004550433347588747650_)"/><path d="m376.963 381.704h-23.984c-5.691 0-10.304-4.613-10.304-10.304 0-5.691 4.613-10.304 10.304-10.304h23.984c5.691 0 10.304 4.613 10.304 10.304 0 5.691-4.613 10.304-10.304 10.304z" fill="url(#SVGID_00000097492863815351562980000003667649203611317666_)"/><g><path d="m367.721 348.359c-13.833 0-25.046-11.214-25.046-25.046v-51.949c0-13.833 11.214-25.046 25.046-25.046h30.091c14.237 0 27.459 7.372 34.943 19.483l28.429 46.004c4.502 7.285 7.777 15.212 9.737 23.467 1.586 6.677-3.479 13.088-10.342 13.088h-92.858z" fill="url(#SVGID_00000018927971116039327890000016069997348728536752_)"/></g><g><path d="m367.721 348.359c-13.833 0-25.046-11.214-25.046-25.046v-51.949c0-13.833 11.214-25.046 25.046-25.046h30.091c14.237 0 27.459 7.372 34.943 19.483l28.429 46.004c4.502 7.285 7.777 15.212 9.737 23.467 1.586 6.677-3.479 13.088-10.342 13.088h-92.858z" fill="url(#SVGID_00000106845312376525266690000012082930292431729027_)"/></g><g><path d="m367.721 348.359c-13.833 0-25.046-11.214-25.046-25.046v-51.949c0-13.833 11.214-25.046 25.046-25.046h30.091c14.237 0 27.459 7.372 34.943 19.483l28.429 46.004c4.502 7.285 7.777 15.212 9.737 23.467 1.586 6.677-3.479 13.088-10.342 13.088h-92.858z" fill="url(#SVGID_00000134969037808453684850000005607037755642600088_)"/></g></g></g><path d="m459.391 355.699 41.332 41.332v-40.34c0-7.827-3.551-15.23-9.655-20.129-3.257-2.614-5.764-5.963-7.418-9.722l-7.152-7.152z" fill="url(#SVGID_00000046313499266877634550000002772086901973984394_)"/><g><path d="m466.71 315.572c-5.928 0-10.733 4.805-10.733 10.733v21.546c0 5.928 4.805 10.733 10.733 10.733 7.569 0 13.704-6.135 13.704-13.704v-15.604c0-7.568-6.135-13.704-13.704-13.704z" fill="url(#SVGID_00000120559826346206718780000004408091009469590700_)"/><path d="m455.977 333.95v13.901c0 5.928 4.805 10.733 10.733 10.733 7.568 0 13.704-6.135 13.704-13.704v-10.93z" fill="url(#SVGID_00000005250089829803778250000018316831506260240793_)"/><path d="m466.711 315.572c-1.34 0-2.617.257-3.8.705v41.602c1.183.449 2.46.705 3.8.705 7.568 0 13.704-6.135 13.704-13.704v-15.604c-.001-7.568-6.136-13.704-13.704-13.704z" fill="url(#SVGID_00000137108830999717412210000010571943312779573891_)"/></g><g><g><circle cx="406.427" cy="457.775" fill="url(#SVGID_00000108988702070564792040000015967219741018993795_)" r="54.225"/><path d="m352.202 457.775c0 29.948 24.277 54.225 54.225 54.225s54.225-24.278 54.225-54.225c0-6.486-1.143-12.704-3.231-18.469h-101.988c-2.088 5.765-3.231 11.983-3.231 18.469z" fill="url(#SVGID_00000086686865579705762970000008119621790659190955_)"/><path d="m368.084 496.118c21.176 21.176 55.51 21.176 76.686 0s21.176-55.51 0-76.686c-4.586-4.586-9.791-8.175-15.344-10.775l-72.116 72.116c2.599 5.554 6.188 10.759 10.774 15.345z" fill="url(#SVGID_00000151537699996793851850000009836822233281992124_)"/></g><circle cx="406.427" cy="457.775" fill="url(#SVGID_00000012462950703502071960000008081748718789189774_)" r="34.949"/><g><circle cx="406.427" cy="457.775" fill="url(#SVGID_00000018201347044392740230000011242334735630209978_)" r="25.779"/><path d="m380.648 457.775c0 14.237 11.542 25.779 25.779 25.779s25.779-11.542 25.779-25.779c0-3.083-.543-6.04-1.536-8.78h-48.486c-.993 2.74-1.536 5.696-1.536 8.78z" fill="url(#SVGID_00000165236490421729509290000014330207740674781856_)"/><path d="m388.199 476.004c10.067 10.067 26.39 10.067 36.457 0s10.067-26.39 0-36.457c-2.18-2.18-4.655-3.887-7.295-5.122l-34.285 34.285c1.236 2.639 2.942 5.113 5.123 7.294z" fill="url(#SVGID_00000182495453957445758620000004645369563246233506_)"/></g></g><g><g><circle cx="96.356" cy="457.775" fill="url(#SVGID_00000149378959890821858910000008552037413614390148_)" r="54.225"/><path d="m42.131 457.775c0 29.948 24.277 54.225 54.225 54.225s54.225-24.278 54.225-54.225c0-6.486-1.143-12.704-3.231-18.469h-101.988c-2.088 5.765-3.231 11.983-3.231 18.469z" fill="url(#SVGID_00000008871848568662544080000001362553203984482490_)"/><path d="m58.014 496.118c21.176 21.176 55.51 21.176 76.686 0s21.176-55.51 0-76.686c-4.586-4.586-9.791-8.175-15.344-10.775l-72.117 72.116c2.599 5.554 6.188 10.759 10.775 15.345z" fill="url(#SVGID_00000039116634755265096190000013729943571213570725_)"/></g><circle cx="96.356" cy="457.775" fill="url(#SVGID_00000171696175402154352720000012813201552426193057_)" r="34.949"/><g><circle cx="96.356" cy="457.775" fill="url(#SVGID_00000021826651768191781540000015116988647428910757_)" r="25.779"/><path d="m70.577 457.775c0 14.237 11.542 25.779 25.779 25.779s25.779-11.542 25.779-25.779c0-3.083-.543-6.04-1.536-8.78h-48.486c-.992 2.74-1.536 5.696-1.536 8.78z" fill="url(#SVGID_00000124150340315430670760000012081857193787332483_)"/><path d="m78.128 476.004c10.067 10.067 26.39 10.067 36.457 0s10.067-26.39 0-36.457c-2.18-2.18-4.655-3.887-7.295-5.122l-34.285 34.285c1.236 2.639 2.943 5.113 5.123 7.294z" fill="url(#SVGID_00000025445219481746858500000017182891341393654204_)"/></g></g><g><path d="m512 396.008c0 12.017-8.991 21.76-20.082 21.76s-11.091-43.519 0-43.519c11.091-.001 20.082 9.741 20.082 21.759z" fill="url(#SVGID_00000021086499389414718550000011285548655930598328_)"/><path d="m491.918 417.767c11.091 0 20.082-9.742 20.082-21.76 0-3.414-.727-6.643-2.021-9.519h-25.625c-2.169 12.873.351 31.279 7.564 31.279z" fill="url(#SVGID_00000122695190073092823860000014555340691790811835_)"/><path d="m491.918 374.248c-.14 0-.277.012-.413.025v43.468c.136.014.273.025.413.025 11.091 0 20.082-9.742 20.082-21.76 0-12.016-8.991-21.758-20.082-21.758z" fill="url(#SVGID_00000016044128955138480660000017145021138864735908_)"/></g></g><g><path d="m147.761 28.195h37.919v37.919h-37.919z" fill="url(#SVGID_00000023280742091849438440000006320224492007604156_)"/><g><path d="m267.697 102.632 12.426-12.426c2.238-2.238 2.238-5.866 0-8.103l-23.645-23.645c-2.238-2.238-5.866-2.238-8.103 0l-12.426 12.426c-2.238 2.238-2.238 5.866 0 8.103l23.645 23.645c2.237 2.238 5.865 2.238 8.103 0z" fill="url(#SVGID_00000036939707195839051990000014816990063179407789_)"/><path d="m262.647 98.808 13.651-13.651c1.899-1.899 1.899-4.979 0-6.878l-15.996-15.996c-1.899-1.899-4.979-1.899-6.878 0l-13.651 13.651c-1.899 1.899-1.899 4.979 0 6.878l15.996 15.996c1.899 1.899 4.979 1.899 6.878 0z" fill="url(#SVGID_00000075137520842464226110000009259578982113313686_)"/><path d="m254.62 93.271 16.141-16.141c1.212-1.212 1.212-3.176 0-4.388l-4.922-4.922c-1.212-1.212-3.176-1.212-4.388 0l-16.141 16.141c-1.212 1.212-1.212 3.176 0 4.388l4.922 4.922c1.212 1.211 3.176 1.211 4.388 0z" fill="url(#SVGID_00000159467410953975107440000018080198895434328503_)"/><path d="m268.3 70.281 11.823 11.823c2.238 2.238 2.238 5.866 0 8.103l-12.426 12.426c-2.238 2.238-5.866 2.238-8.103 0l-11.823-11.823z" fill="url(#SVGID_00000145029591015405922940000012862217389304589201_)"/><path d="m235.948 70.884 10.979-10.979 31.748 31.748-10.979 10.979c-2.238 2.238-5.866 2.238-8.103 0l-23.645-23.645c-2.237-2.237-2.237-5.865 0-8.103z" fill="url(#SVGID_00000137102065285875490290000016142600792724187068_)"/></g><g><path d="m245.339 95.105c-43.42-43.42-113.816-43.42-157.236 0-43.41 43.42-43.41 113.806 0 157.227 43.42 43.42 113.816 43.42 157.236 0 43.41-43.42 43.41-113.807 0-157.227z" fill="url(#SVGID_00000088097236481222229910000011331307108832433552_)"/><path d="m245.339 95.105c-.001-.001-.002-.002-.002-.002l-91.537 91.536 77.552 77.552c4.901-3.51 9.584-7.458 13.987-11.86 43.41-43.419 43.41-113.806 0-157.226z" fill="url(#SVGID_00000036253091003662246020000010337447355481606587_)"/><path d="m183.178 283.674-46.686-46.686-30.122 30.122c23.095 14.955 50.516 20.478 76.808 16.564z" fill="url(#SVGID_00000090273724349989645550000002742793949152501676_)"/><g><g><g><g><g><path d="m251.924 88.52c-47.054-47.054-123.344-47.054-170.408 0-47.054 47.054-47.054 123.344 0 170.398 47.064 47.054 123.354 47.054 170.408 0s47.054-123.344 0-170.398zm-156.876 156.866c-39.582-39.582-39.582-103.753 0-143.334 39.582-39.582 103.762-39.582 143.344 0s39.582 103.753 0 143.334c-39.581 39.582-103.762 39.582-143.344 0z" fill="url(#SVGID_00000076564910603965981010000014082136946747203229_)"/><path d="m245.339 95.105c-43.42-43.42-113.816-43.42-157.236 0-43.41 43.42-43.41 113.806 0 157.227 43.42 43.42 113.816 43.42 157.236 0 43.41-43.42 43.41-113.807 0-157.227zm-9.144 148.084c-38.368 38.368-100.581 38.368-138.95 0-38.368-38.368-38.368-100.572 0-138.94s100.581-38.368 138.95 0 38.369 100.571 0 138.94z" fill="url(#SVGID_00000013176322212871813550000001489091915477895308_)"/></g></g></g></g><path d="m236.195 243.189c-38.368 38.368-100.581 38.368-138.95 0-20.448-20.448-29.992-47.665-28.646-74.436h-22.264c-1.331 32.47 10.392 65.375 35.182 90.165 47.064 47.054 123.354 47.054 170.408 0 24.79-24.79 36.513-57.695 35.182-90.165h-22.265c1.346 26.771-8.199 53.988-28.647 74.436z" fill="url(#SVGID_00000142176728556427351970000009559918934383139251_)"/><path d="m264.971 173.712c0 54.261-43.991 98.252-98.252 98.252-28.917 0-54.912-12.496-72.89-32.378l-15.744 15.744c22.018 23.901 53.575 38.879 88.633 38.879 66.551-.007 120.496-53.952 120.496-120.496 0-35.059-14.978-66.615-38.879-88.633l-15.744 15.744c19.884 17.976 32.38 43.97 32.38 72.888z" fill="url(#SVGID_00000119111838415325144300000006431718180126436008_)"/></g></g><path d="m64.059 102.315c.027 0 .054-.001.082-.001v.006c-.027-.001-.054-.005-.082-.005z" fill="url(#SVGID_00000067915755132668140260000013038781115338856870_)"/><path d="m62.518 102.23c.511.057 1.022.082 1.542.085-.515-.004-1.03-.025-1.542-.085z" fill="url(#SVGID_00000134220433545026766400000017864233380920138405_)"/><path d="m246.267 264.211c-21.221 18.672-49.054 29.994-79.546 29.994-35.063 0-66.62-14.977-88.638-38.877l15.744-15.744c17.985 19.887 43.975 32.384 72.894 32.384 24.338 0 46.624-8.853 63.782-23.521z" fill="url(#SVGID_00000177466422136599160970000013368390514134915209_)"/><g><path d="m166.721 80.545c-2.058 0-3.727 1.669-3.727 3.727v12.068c0 2.058 1.669 3.727 3.727 3.727s3.727-1.669 3.727-3.727v-12.068c0-2.058-1.669-3.727-3.727-3.727z" fill="url(#SVGID_00000058591100085940898780000003444011667269016728_)"/><path d="m166.721 247.37c-2.058 0-3.727 1.669-3.727 3.727v12.068c0 2.058 1.669 3.727 3.727 3.727s3.727-1.669 3.727-3.727v-12.068c0-2.059-1.669-3.727-3.727-3.727z" fill="url(#SVGID_00000005260876779787599950000013155268996931467687_)"/><path d="m256.167 169.992h-12.068c-2.058 0-3.727 1.669-3.727 3.727s1.669 3.727 3.727 3.727h12.068c2.058 0 3.727-1.669 3.727-3.727s-1.669-3.727-3.727-3.727z" fill="url(#SVGID_00000036959795055532479620000014553087232459327922_)"/><path d="m89.342 169.992h-12.068c-2.058 0-3.727 1.669-3.727 3.727s1.669 3.727 3.727 3.727h12.068c2.058 0 3.727-1.669 3.727-3.727s-1.668-3.727-3.727-3.727z" fill="url(#SVGID_00000021810239170468282240000001662586734106396336_)"/><path d="m227.333 107.835-8.533 8.533c-1.455 1.455-1.455 3.815 0 5.271 1.455 1.455 3.815 1.455 5.271 0l8.533-8.533c1.455-1.455 1.455-3.815 0-5.271-1.455-1.455-3.815-1.455-5.271 0z" fill="url(#SVGID_00000037654395566364642690000013242199006327492752_)"/><path d="m109.371 225.798-8.533 8.533c-1.455 1.456-1.455 3.815 0 5.271 1.455 1.455 3.815 1.455 5.271 0l8.533-8.533c1.455-1.455 1.455-3.815 0-5.271-1.456-1.456-3.816-1.456-5.271 0z" fill="url(#SVGID_00000039120808588422965000000015610656037040497331_)"/><path d="m224.071 225.798c-1.455-1.455-3.815-1.455-5.271 0-1.455 1.455-1.455 3.815 0 5.271l8.533 8.533c1.456 1.455 3.815 1.455 5.271 0 1.455-1.455 1.455-3.815 0-5.271z" fill="url(#SVGID_00000025405725366327418870000008772323123113427638_)"/><path d="m106.108 107.835c-1.455-1.455-3.815-1.455-5.271 0-1.455 1.455-1.455 3.815 0 5.271l8.533 8.533c1.455 1.455 3.815 1.455 5.271 0 1.455-1.455 1.455-3.815 0-5.271z" fill="url(#SVGID_00000056414670389944618060000012715889910886204340_)"/></g><path d="m73.135 222.708 60.054 12.299c4.509.925 6.182 6.494 2.927 9.749l-47.755 47.755c-3.255 3.255-8.824 1.582-9.749-2.927l-12.299-60.054c-.834-4.062 2.76-7.656 6.822-6.822z" fill="url(#SVGID_00000124130318458860664030000018428266944504363681_)"/><g><path d="m165.019 173.562-4.681-4.681 22.433-29.212c7.685-10.007 20.101-21.127 39.604-33.608l8.057-5.157c4.652-2.977 10.221 2.592 7.244 7.244l-5.157 8.057c-12.481 19.503-23.601 31.919-33.608 39.604l-29.211 22.434z" fill="url(#SVGID_00000153697672051136922600000015004752956019025800_)"/><path d="m205.553 150.134-17.106-17.106c-2.123 2.266-4.018 4.481-5.676 6.641l-22.433 29.212 4.681 4.681 4.681 4.681 29.212-22.433c2.16-1.659 4.375-3.553 6.641-5.676z" fill="url(#SVGID_00000169554631644593472990000001291020329685945495_)"/><g><circle cx="166.721" cy="173.718" fill="url(#SVGID_00000000910636937990076650000013487992300134283960_)" r="18.273"/><path d="m148.448 173.718c0 10.092 8.181 18.273 18.273 18.273s18.273-8.181 18.273-18.273c0-2.186-.385-4.281-1.089-6.224h-34.368c-.704 1.943-1.089 4.039-1.089 6.224z" fill="url(#SVGID_00000000910608711195591870000018242752197255932815_)"/><path d="m153.8 186.639c7.136 7.136 18.706 7.136 25.842 0s7.136-18.706 0-25.842c-1.545-1.546-3.299-2.755-5.171-3.631l-24.302 24.302c.876 1.872 2.085 3.626 3.631 5.171z" fill="url(#SVGID_00000108297749843816680920000004495633695659443346_)"/></g></g><g><path d="m201.112 35.698v-26.92c0-4.848-3.93-8.778-8.778-8.778h-51.227c-4.848 0-8.778 3.93-8.778 8.778v26.921c0 4.848 3.93 8.778 8.778 8.778h51.227c4.848-.001 8.778-3.931 8.778-8.779z" fill="url(#SVGID_00000158003667375401046170000001882391858023761840_)"/><path d="m191.498 37.025v-29.574c0-4.115-3.336-7.451-7.451-7.451h-34.654c-4.115 0-7.451 3.336-7.451 7.451v29.575c0 4.115 3.336 7.451 7.451 7.451h34.654c4.116-.001 7.451-3.337 7.451-7.452z" fill="url(#SVGID_00000034048294128723222760000001438017650877762980_)"/><path d="m176.805 39.723v-34.97c0-2.625-2.128-4.753-4.753-4.753h-10.663c-2.625 0-4.753 2.128-4.753 4.753v34.969c0 2.625 2.128 4.753 4.753 4.753h10.663c2.625.001 4.753-2.127 4.753-4.752z" fill="url(#SVGID_00000131365068057872460280000001501667688066413494_)"/><path d="m166.721 0h25.613c4.848 0 8.778 3.93 8.778 8.778v26.92c0 4.848-3.93 8.778-8.778 8.778h-25.613z" fill="url(#SVGID_00000141413116909255319570000010985259669025767093_)"/><path d="m132.33 35.698v-23.785h68.782v23.785c0 4.848-3.93 8.778-8.778 8.778h-51.227c-4.848 0-8.777-3.93-8.777-8.778z" fill="url(#SVGID_00000157297884034187904410000000882426416644852106_)"/></g></g></g><g/><g/><g/><g/><g/><g/><g/><g/><g/><g/><g/><g/><g/><g/><g/></svg>