<svg width="512" height="512" viewBox="0 0 512 512" fill="none" xmlns="http://www.w3.org/2000/svg">
<g clip-path="url(#clip0_1125_1105)">
<path d="M255.999 282.006C250.44 282.006 245.935 286.512 245.935 292.071V353.77C245.935 359.328 250.441 363.835 255.999 363.835H294.944C300.503 363.835 305.009 359.328 305.009 353.77C305.009 348.212 300.502 343.705 294.944 343.705H266.064V292.071C266.065 286.511 261.559 282.006 255.999 282.006Z" fill="#444971"/>
<path d="M463.134 49.4135H417.639V37.4649C417.639 17.0818 401.026 0.498901 380.605 0.498901C360.184 0.498901 343.571 17.0818 343.571 37.4649V49.4135H293.032V37.4649C293.032 17.0818 276.42 0.498901 255.999 0.498901C235.577 0.498901 218.967 17.0828 218.967 37.4649V49.4135H168.428V37.4649C168.428 17.0818 151.815 0.498901 131.394 0.498901C110.958 0.498901 94.3311 17.0818 94.3311 37.4649V49.4135H48.8657C21.9206 49.4135 0 71.2902 0 98.1803V224.5C0 230.058 4.50664 234.565 10.0649 234.565C15.6231 234.565 20.1297 230.058 20.1297 224.5V171.882H491.869V383.014C491.869 398.804 478.979 411.651 463.134 411.651H403.074C410.188 393.722 414.101 374.193 414.101 353.769C414.101 266.795 343.177 196.037 256 196.037C168.822 196.037 97.899 266.796 97.899 353.77C97.899 374.194 101.811 393.722 108.926 411.652H48.8657C33.0211 411.652 20.1307 398.805 20.1307 383.015V316.138C20.1307 310.58 15.6241 306.073 10.0659 306.073C4.50764 306.073 0 310.578 0 316.137V383.014C0 409.904 21.9206 431.78 48.8657 431.78H118.629C145.883 479.36 197.248 511.5 256 511.5C314.753 511.5 366.118 479.36 393.372 431.78H463.135C490.079 431.78 512.001 409.904 512.001 383.014V98.1803C512 71.2902 490.079 49.4135 463.134 49.4135ZM256 491.37C179.922 491.37 118.029 429.642 118.029 353.769C118.029 277.895 179.922 216.167 256 216.167C332.077 216.167 393.97 277.895 393.97 353.769C393.97 429.642 332.078 491.37 256 491.37ZM363.703 37.4649C363.703 28.1813 371.285 20.6286 380.606 20.6286C389.927 20.6286 397.509 28.1813 397.509 37.4649V81.4897C397.509 90.7734 389.927 98.326 380.606 98.326C371.285 98.326 363.703 90.7734 363.703 81.4897V37.4649ZM239.096 37.4649C239.096 28.1813 246.679 20.6286 256 20.6286C265.32 20.6286 272.903 28.1813 272.903 37.4649V81.4897C272.903 90.7734 265.32 98.326 256 98.326C246.679 98.326 239.096 90.7734 239.096 81.4897V37.4649ZM114.462 37.4649C114.462 28.1813 122.057 20.6286 131.394 20.6286C140.715 20.6286 148.297 28.1813 148.297 37.4649V81.4897C148.297 90.7734 140.715 98.326 131.394 98.326C122.057 98.326 114.462 90.7734 114.462 81.4897V37.4649ZM20.1307 151.752V98.1803C20.1307 82.3896 33.0211 69.5432 48.8657 69.5432H94.3322V81.4907C94.3322 101.874 110.959 118.457 131.395 118.457C151.815 118.457 168.429 101.874 168.429 81.4907V69.5432H218.968V81.4907C218.968 101.874 235.58 118.457 256.002 118.457C276.423 118.457 293.035 101.874 293.035 81.4907V69.5432H343.574V81.4907C343.574 101.874 360.187 118.457 380.608 118.457C401.029 118.457 417.642 101.874 417.642 81.4907V69.5432H463.137C478.979 69.5432 491.869 82.3896 491.869 98.1803V151.752H20.1307Z" fill="#444971"/>
<path d="M10.0649 280.47C15.6241 280.47 20.1297 275.964 20.1297 270.405V270.203C20.1297 264.645 15.6231 260.138 10.0649 260.138C4.50664 260.138 0 264.644 0 270.203V270.405C0 275.964 4.50664 280.47 10.0649 280.47Z" fill="#444971"/>
<path d="M370.624 337.831C369.857 332.326 364.77 328.486 359.267 329.25C353.762 330.017 349.92 335.102 350.687 340.608C355.692 376.544 339.382 412.803 309.14 432.982C292.852 443.839 274.406 449.034 256.142 449.033C225.272 449.031 194.938 434.183 176.527 406.742C162.363 385.6 157.289 360.217 162.24 335.272C167.203 310.276 181.631 288.701 202.861 274.528C233.193 254.316 273.108 253.185 304.551 271.649C309.344 274.462 315.511 272.86 318.327 268.067C321.142 263.273 319.539 257.106 314.745 254.29C296.264 243.437 275.132 237.9 253.651 238.335C231.568 238.761 210.145 245.484 191.692 257.78C165.978 274.947 148.506 301.076 142.496 331.352C136.496 361.577 142.642 392.329 159.807 417.951C182.099 451.176 218.811 469.15 256.179 469.149C278.276 469.148 300.603 462.862 320.308 449.727C338.716 437.445 353.12 420.305 361.965 400.156C370.576 380.544 373.57 358.992 370.624 337.831Z" fill="#444971"/>
<path d="M335.541 300.94C337.48 303.856 340.676 305.434 343.932 305.434C345.846 305.434 347.781 304.889 349.495 303.75C354.125 300.672 355.383 294.424 352.305 289.796L352.189 289.621C349.112 284.992 342.865 283.735 338.235 286.812C333.606 289.89 332.348 296.137 335.426 300.766L335.541 300.94Z" fill="#444971"/>
</g>
<defs>
<clipPath id="clip0_1125_1105">
<rect width="512" height="512" fill="white"/>
</clipPath>
</defs>
</svg>
