<svg width="512" height="512" viewBox="0 0 512 512" fill="none" xmlns="http://www.w3.org/2000/svg">
<mask id="mask0_1125_1111" style="mask-type:luminance" maskUnits="userSpaceOnUse" x="0" y="0" width="512" height="512">
<path d="M0 6.10352e-05H512V512H0V6.10352e-05Z" fill="white"/>
</mask>
<g mask="url(#mask0_1125_1111)">
<path d="M255.998 326.836C277.998 326.836 295.998 344.836 295.998 366.836V386.836C295.998 408.836 277.998 426.836 255.998 426.836C233.998 426.836 215.998 408.836 215.998 386.836V366.836C215.998 344.836 233.998 326.836 255.998 326.836Z" stroke="#444971" stroke-width="20" stroke-miterlimit="22.926" stroke-linecap="round" stroke-linejoin="round"/>
<path d="M287.168 414.21C310.136 425.726 325.998 449.519 325.998 476.835V501.996H185.998V476.835C185.998 449.48 201.903 425.662 224.92 414.163" stroke="#444971" stroke-width="20" stroke-miterlimit="22.926" stroke-linecap="round" stroke-linejoin="round"/>
<path d="M141.711 351.859C160.568 351.859 175.997 367.288 175.997 386.144V403.288C175.997 422.145 160.568 437.573 141.711 437.573C122.855 437.573 107.426 422.145 107.426 403.288V386.144C107.426 367.288 122.855 351.859 141.711 351.859Z" stroke="#444971" stroke-width="20" stroke-miterlimit="22.926" stroke-linecap="round" stroke-linejoin="round"/>
<path d="M185.999 501.996H81.7129V480.43C81.7129 456.982 95.3459 436.567 115.074 426.711M168.43 426.751C178.132 431.616 186.353 439.039 192.199 448.118" stroke="#444971" stroke-width="20" stroke-miterlimit="22.926" stroke-linecap="round" stroke-linejoin="round"/>
<path d="M370.286 351.859C389.143 351.859 404.571 367.288 404.571 386.144V403.288C404.571 422.145 389.143 437.573 370.286 437.573C351.429 437.573 336 422.145 336 403.288V386.144C336 367.288 351.429 351.859 370.286 351.859Z" stroke="#444971" stroke-width="20" stroke-miterlimit="22.926" stroke-linecap="round" stroke-linejoin="round"/>
<path d="M319.798 448.118C325.659 439.014 333.91 431.576 343.648 426.711M397.002 426.751C416.689 436.622 430.285 457.015 430.285 480.43V501.996H325.998" stroke="#444971" stroke-width="20" stroke-miterlimit="22.926" stroke-linecap="round" stroke-linejoin="round"/>
<path d="M167.508 28.5215C248.103 -6.85355 345.576 8.44445 411.563 74.4305C497.478 160.346 497.478 299.642 411.563 385.557C409.279 387.841 406.829 389.995 404.571 392.252M107.424 392.241C105.06 390.073 102.727 387.848 100.436 385.557C16.5129 301.634 14.5829 166.786 94.6139 80.5005" stroke="#444971" stroke-width="20" stroke-miterlimit="2.613" stroke-linecap="round" stroke-linejoin="round"/>
<path d="M37.6709 245.397C62.6289 246.969 65.0459 230.833 80.4159 243.543C89.1089 250.733 103.37 275.803 118.494 252.423C127.76 238.098 85.5889 206.685 123.525 196.802C133.264 194.265 140.272 216.324 154.616 216.77C168.315 217.196 188.125 213.02 181.595 193.532C177.096 180.104 167.762 173.83 150.744 165.626C141.86 161.343 118.657 157.151 116.117 148.398C104.536 108.487 101.057 136.244 69.9049 115.387" stroke="#444971" stroke-width="20" stroke-miterlimit="2.613" stroke-linecap="round" stroke-linejoin="round"/>
<path d="M240.373 12.4874C240.583 19.8984 244.448 22.2954 244.552 28.0404C244.743 38.7134 233.684 38.5774 239.936 50.0374C251.851 71.8794 289.608 64.3284 280.245 86.7953C273.816 102.222 287.163 116.455 253.685 121.658C240.589 123.693 239.832 146.986 242.618 150.268C251.926 161.231 259.6 142.868 279.829 165.237C292.228 178.949 302.837 165.66 310.382 175.61C322.246 204.877 334.16 193.571 334.16 224.507C334.16 243.128 359.834 239.655 367.566 210.794C373.007 190.493 386.12 189.61 398.35 210.374C423.587 253.22 433.182 213.487 442.765 223.071C453.642 233.948 464.818 215.291 475.423 219.913" stroke="#444971" stroke-width="20" stroke-miterlimit="2.613" stroke-linecap="round" stroke-linejoin="round"/>
<path d="M128.374 50.7549H128.381" stroke="#444971" stroke-width="20" stroke-miterlimit="2.613" stroke-linecap="round" stroke-linejoin="round"/>
</g>
</svg>
